<svg width="236" height="179" viewBox="0 0 236 179" fill="none" xmlns="http://www.w3.org/2000/svg">
<path d="M231.759 170.499C224.754 180.499 14.7535 182.999 4.75543 170.499C-5.2426 157.999 -5.32032 60.5002 64.2568 55.9995C150.077 50.4481 160.757 91.1637 164.257 110.997C180.257 107.33 228.672 110.999 231.759 119.499C233.757 124.999 238.764 160.499 231.759 170.499Z" fill="#8FD86F" style="fill:#8FD86F;fill:color(display-p3 0.5597 0.8467 0.4346);fill-opacity:1;"/>
<path d="M109.68 133.5C112.68 144.667 108.88 167 69.6797 167" stroke="black" style="stroke:black;stroke-opacity:1;" stroke-width="3" stroke-linecap="round"/>
<path d="M29.357 123.565C29.357 123.565 37.6797 130 45.1815 123.565" stroke="black" style="stroke:black;stroke-opacity:1;" stroke-width="3" stroke-linecap="round" stroke-linejoin="round"/>
<path d="M60.6817 123.565C60.6817 123.565 66.6797 130 76.682 123.565" stroke="black" style="stroke:black;stroke-opacity:1;" stroke-width="3" stroke-linecap="round" stroke-linejoin="round"/>
<path d="M39.7199 135.679C39.7199 135.679 46.7627 141.47 63.6558 135.911" stroke="black" style="stroke:black;stroke-opacity:1;" stroke-width="3" stroke-linecap="round" stroke-linejoin="round"/>
<path d="M149.18 50.0002C150.18 56.5002 147.681 68.5002 140.18 70.0002C136.138 70.8085 123.18 58.7002 90.1808 56.5002C52.6795 54 42.6808 68.0002 36.68 64.5002C30.6793 61.0002 12.6795 -2.00001 82.68 0.500205C115.459 1.67098 121.68 25.8335 120.68 38.5002C120.68 38.5002 148.18 43.5002 149.18 50.0002Z" fill="#FB812C" style="fill:#FB812C;fill:color(display-p3 0.9843 0.5059 0.1725);fill-opacity:1;"/>
<path d="M47.6798 31.2219C47.6798 31.2219 52.3028 34.7962 56.4698 31.2219" stroke="black" style="stroke:black;stroke-opacity:1;" stroke-width="3" stroke-linecap="round" stroke-linejoin="round"/>
<path d="M65.0791 31.2216C65.0791 31.2216 68.4108 34.796 73.9668 31.2217" stroke="black" style="stroke:black;stroke-opacity:1;" stroke-width="3" stroke-linecap="round" stroke-linejoin="round"/>
<path d="M53.4353 37.9503C53.4353 37.9503 57.3473 41.1673 66.7309 38.0794" stroke="black" style="stroke:black;stroke-opacity:1;" stroke-width="3" stroke-linecap="round" stroke-linejoin="round"/>
<path d="M74.1789 51C69.1789 57.1667 60.6789 73.3 66.6789 88.5" stroke="black" style="stroke:black;stroke-opacity:1;" stroke-width="3" stroke-linecap="round"/>
</svg>
