<svg width="297" height="242" viewBox="0 0 297 242" fill="none" xmlns="http://www.w3.org/2000/svg">
<path d="M153.55 -105.278C204.573 -25.2315 259.17 39.1295 180.869 95.2923C86.0386 163.311 13.2279 18.841 2.11184 3.34318C-9.00427 -12.1547 44.5791 -45.2187 60.5214 -56.6537C65.0286 -59.8865 62.3454 -63.6722 65.4747 -65.9168C68.5299 -68.1082 77.3756 -68.7426 83.4952 -73.132C110.22 -92.3008 144.118 -118.428 153.55 -105.278Z" fill="#A44BE1" style="fill:#A44BE1;fill:color(display-p3 0.6431 0.2941 0.8824);fill-opacity:1;"/>
<ellipse cx="4.31658" cy="3.53175" rx="4.31658" ry="3.53175" transform="matrix(0.849291 -0.527925 -0.527925 -0.849291 80.5488 28.0801)" fill="#9A4DD4" style="fill:#9A4DD4;fill:color(display-p3 0.6039 0.3020 0.8314);fill-opacity:1;"/>
<path d="M119.816 54.9142C124.864 62.4183 123.374 72.2624 116.486 76.9016C109.599 81.5409 99.9235 79.2184 94.8751 71.7143C89.8268 64.2102 91.3176 54.3661 98.2049 49.7269C105.092 45.0876 114.768 47.4101 119.816 54.9142Z" fill="white" style="fill:white;fill-opacity:1;"/>
<path d="M153.395 32.3048C158.443 39.8089 156.952 49.653 150.065 54.2922C143.178 58.9315 133.502 56.609 128.454 49.1049C123.405 41.6008 124.896 31.7567 131.783 27.1175C138.671 22.4783 148.346 24.8007 153.395 32.3048Z" fill="white" style="fill:white;fill-opacity:1;"/>
<path d="M137.579 31.4805C140.903 29.9261 144.853 31.3546 146.401 34.671C147.95 37.9874 146.511 41.9359 143.187 43.4903C139.864 45.0446 135.914 43.6162 134.365 40.2998C132.817 36.9834 134.256 33.0348 137.579 31.4805Z" fill="black" style="fill:black;fill-opacity:1;"/>
<path d="M103.627 54.3672C106.951 52.8128 110.9 54.2413 112.449 57.5577C113.998 60.8741 112.559 64.8227 109.235 66.377C105.912 67.9314 101.962 66.5029 100.413 63.1865C98.8647 59.8701 100.304 55.9215 103.627 54.3672Z" fill="black" style="fill:black;fill-opacity:1;"/>
<path d="M120.378 80.7624C120.378 80.7624 114.45 86.361 103.513 83.7512" stroke="black" style="stroke:black;stroke-opacity:1;" stroke-width="3" stroke-linecap="round" stroke-linejoin="round"/>
<path d="M162.115 46.7046C162.115 46.7046 162.826 54.7961 151.883 60.4508" stroke="black" style="stroke:black;stroke-opacity:1;" stroke-width="3" stroke-linecap="round" stroke-linejoin="round"/>
<path d="M122.267 59.8019C122.458 63.1681 96.2631 79.9578 91.4817 79.7462C88.4114 78.0751 81.6563 65.4824 82.1718 63.4447C82.6874 61.407 109.574 45.8315 111.853 44.6822C114.132 43.533 122.136 57.4803 122.267 59.8019Z" stroke="black" style="stroke:black;stroke-opacity:1;" stroke-width="3"/>
<path d="M159.135 36.9152C159.326 40.2813 133.13 57.0711 128.349 56.8595C125.279 55.1884 118.524 42.5957 119.039 40.558C119.555 38.5203 146.441 22.9447 148.72 21.7955C150.999 20.6463 159.003 34.5936 159.135 36.9152Z" stroke="black" style="stroke:black;stroke-opacity:1;" stroke-width="3"/>
<path d="M119.172 53.0502C120.203 53.107 122.445 52.6893 123.171 50.5642" stroke="black" style="stroke:black;stroke-opacity:1;" stroke-width="2.17198" stroke-linecap="round"/>
<path d="M156.085 29.178C167.887 29.2274 191.449 26.6447 191.276 15.9195" stroke="black" style="stroke:black;stroke-opacity:1;" stroke-width="3" stroke-linecap="round"/>
<path d="M63.3428 59.1035C61.5 42.5 78 15.9996 96.5001 18.9996" stroke="black" style="stroke:black;stroke-opacity:1;" stroke-width="3" stroke-linecap="round"/>
<path d="M137.35 2.01259C121 -10.5 97.4787 7.0563 86 26.9998" stroke="black" style="stroke:black;stroke-opacity:1;" stroke-width="3" stroke-linecap="round"/>
<path d="M105.734 37.375C106.015 35.1084 108.541 30.6092 116.399 30.7457" stroke="black" style="stroke:black;stroke-opacity:1;" stroke-width="3" stroke-linecap="round"/>
</svg>
