<svg width="180" height="204" viewBox="0 0 180 204" fill="none" xmlns="http://www.w3.org/2000/svg">
<g clip-path="url(#clip0_1571_4866)">
<path d="M180.694 251.009C175.711 160.28 182.286 79.7578 89.8125 79.7578C-22.1821 79.7578 1.84589 232.752 1.84589 251.009C1.84589 269.265 62.1247 265.089 80.9527 265.089C86.2756 265.089 89.4128 234.77 93.1085 234.77C96.7168 234.77 100.858 265.089 108.085 265.089C139.647 265.089 180.694 266.499 180.694 251.009Z" fill="#0075E2" style="fill:#0075E2;fill:color(display-p3 0.0000 0.4588 0.8863);fill-opacity:1;"/>
<path d="M94.7601 144.988C94.9042 135.774 102.196 128.402 111.047 128.521C119.897 128.641 126.956 136.206 126.812 145.42C126.668 154.633 119.376 162.005 110.525 161.886C101.674 161.766 94.6161 154.201 94.7601 144.988Z" fill="white" style="fill:white;fill-opacity:1;"/>
<path d="M52.725 143.044C52.869 133.831 60.1608 126.459 69.0115 126.578C77.8623 126.697 84.9205 134.263 84.7765 143.476C84.6324 152.689 77.3406 160.062 68.4899 159.942C59.6391 159.823 52.5809 152.257 52.725 143.044Z" fill="white" style="fill:white;fill-opacity:1;"/>
<path d="M66.5163 147.383C61.9898 146.643 58.9497 142.545 59.726 138.229C60.5024 133.914 64.8011 131.015 69.3276 131.756C73.854 132.496 76.8941 136.594 76.1178 140.91C75.3415 145.225 71.0427 148.123 66.5163 147.383Z" fill="black" style="fill:black;fill-opacity:1;"/>
<path d="M109.625 149.405C104.781 148.613 101.528 144.228 102.359 139.61C103.19 134.993 107.789 131.891 112.633 132.683C117.476 133.475 120.729 137.86 119.898 142.478C119.068 147.096 114.468 150.197 109.625 149.405Z" fill="black" style="fill:black;fill-opacity:1;"/>
<path d="M79.7539 162.598C80.392 163.244 81.9202 165.684 80.6562 168.561" stroke="black" style="stroke:black;stroke-opacity:1;" stroke-width="2.02628" stroke-linecap="round"/>
<path d="M81.6284 165.326C81.6284 165.326 86.178 164.427 92.2773 165.605" stroke="black" style="stroke:black;stroke-opacity:1;" stroke-width="2.02628" stroke-linecap="round" stroke-linejoin="round"/>
<path d="M61.8164 122.984C64.293 125.011 71.2049 128.455 79.0398 126.024" stroke="black" style="stroke:black;stroke-opacity:1;" stroke-width="2.02628" stroke-linecap="round"/>
<path d="M121.594 125.012C119.117 127.038 112.205 130.483 104.37 128.051" stroke="black" style="stroke:black;stroke-opacity:1;" stroke-width="2.02628" stroke-linecap="round"/>
<path d="M17.2409 171.615C17.2418 147.638 12.5125 130.077 44.2576 108.463" stroke="black" style="stroke:black;stroke-opacity:1;" stroke-width="2.02628" stroke-linecap="round"/>
<path d="M162.118 166.55C162.118 131.765 150.973 115.217 121.93 101.033" stroke="black" style="stroke:black;stroke-opacity:1;" stroke-width="2.02628" stroke-linecap="round"/>
<path d="M169.533 5.12261C166.163 9.51289 137.074 42.6088 106.848 22.0087C76.6206 1.40851 48.5433 11.5392 50.5654 34.8415C52.5875 58.1439 80.7623 45.9768 95.3889 16.9427C110.015 -12.0915 168.185 11.5392 154.704 34.8415C141.223 58.1438 121.068 44.9732 111.229 22.0087C101.39 -0.955863 166.5 5.12299 137.074 33.153C107.649 61.1829 59.3656 33.153 68.0904 19.6444C76.8152 6.13578 94.3778 16.9427 91.3447 37.8809C88.3115 58.8192 57.3058 63.5472 48.5433 54.2556C39.7808 44.964 59.3656 24.3724 71.4605 46.9992C83.5555 69.626 116.092 49.3339 121.068 34.8415C126.044 20.3492 109.623 21.6707 104.403 33.153C100.444 41.5957 99.5642 71.3145 121.068 67.5997C142.571 63.8848 104.826 33.8283 95.3889 71.6522C85.9523 109.476 140.549 89.8888 128.08 80.7705C115.61 71.6522 30.6812 70.6391 64.046 98.6694C97.4109 126.7 99.433 57.806 64.046 67.5997C28.659 77.3934 92.3556 114.204 117.632 102.046C142.908 89.8888 64.7201 20.9952 42.1398 92.2528C35.7364 110.827 56.9686 122.647 84.9412 111.502C112.914 100.358 116.622 77.7311 142.572 93.2659" stroke="black" style="stroke:black;stroke-opacity:1;" stroke-width="2.02628" stroke-linecap="round"/>
</g>
<defs>
<clipPath id="clip0_1571_4866">
<rect width="180" height="203" fill="white" style="fill:white;fill-opacity:1;" transform="translate(0 0.5)"/>
</clipPath>
</defs>
</svg>
