<svg width="184" height="189" viewBox="0 0 184 189" fill="none" xmlns="http://www.w3.org/2000/svg">
<path d="M184.001 174C178.943 81.8144 185.617 0 91.7717 0C-21.8832 0 2.50105 155.45 2.50105 174C2.50105 192.55 63.6735 188.306 82.7806 188.306C88.1824 188.306 91.3661 157.5 95.1166 157.5C98.7784 157.5 102.98 188.306 110.315 188.306C142.345 188.306 184.001 189.739 184.001 174Z" fill="#FF6EE8" style="fill:#FF6EE8;fill:color(display-p3 1.0000 0.4300 0.9088);fill-opacity:1;"/>
<path d="M68.6149 51.9998C68.6149 51.9998 76.9375 58.4346 84.4393 51.9998" stroke="black" style="stroke:black;stroke-opacity:1;" stroke-width="3" stroke-linecap="round" stroke-linejoin="round"/>
<path d="M99.9395 51.9997C99.9395 51.9997 105.938 58.4346 115.94 52" stroke="black" style="stroke:black;stroke-opacity:1;" stroke-width="3" stroke-linecap="round" stroke-linejoin="round"/>
<path d="M78.9777 64.1131C78.9777 64.1131 86.0205 69.9046 102.914 64.3454" stroke="black" style="stroke:black;stroke-opacity:1;" stroke-width="3" stroke-linecap="round" stroke-linejoin="round"/>
<path d="M39.1492 89C32.6492 101.5 47.1492 122 76.1492 105.5" stroke="black" style="stroke:black;stroke-opacity:1;" stroke-width="3" stroke-linecap="round"/>
<path d="M145.148 89C151.648 101.5 137.148 122 108.148 105.5" stroke="black" style="stroke:black;stroke-opacity:1;" stroke-width="3" stroke-linecap="round"/>
<path d="M81.1157 87.5C89.5157 87.5 92.6157 92.8333 93.1157 95.5C94.6152 90.5 95.1152 87.5 103.115 87.5C120.715 87.5 102.615 113 91.6157 115.5C74.6157 110 70.6157 87.5 81.1157 87.5Z" stroke="black" style="stroke:black;stroke-opacity:1;" stroke-width="3" stroke-linecap="round" stroke-linejoin="round"/>
</svg>
