<svg width="226" height="227" viewBox="0 0 226 227" fill="none" xmlns="http://www.w3.org/2000/svg">
<path d="M14.2212 17.2949C-16.5304 40.8868 26.9811 103.743 51.7728 127.281C75.3512 116.238 118.091 87.1024 100.422 58.9036C78.336 23.655 52.6608 -12.195 14.2212 17.2949Z" fill="#2C1F41" style="fill:#2C1F41;fill:color(display-p3 0.1717 0.1216 0.2533);fill-opacity:1;"/>
<path d="M51.7652 49.5754C52.0778 49.3724 53.3314 48.2919 55.845 45.5935C54.7887 44.0697 51.8027 41.9826 46.9774 42.8086C44.6158 43.2843 42.4606 44.2852 41.6531 44.6769C34.3124 48.2381 36.202 56.0763 37.4755 56.7205C39.2602 57.6232 41.5413 55.5914 42.332 55.1669L42.9338 51.5769L47.0766 52.6195L48.1193 48.4767L51.7652 49.5754Z" fill="white" style="fill:white;fill-opacity:1;"/>
<path d="M35.2826 40.3349C34.4797 36.626 20.253 35.1766 18.8797 38.5472C17.5063 41.9187 19.7846 48.7046 21.6103 50.4125C23.436 52.1203 36.2862 44.9709 35.2826 40.3349Z" fill="white" style="fill:white;fill-opacity:1;"/>
<path d="M43.3616 37.3346C40.0527 35.4768 42.8502 21.4527 46.4756 21.1311C50.1018 20.8097 55.918 24.9824 57.0136 27.2295C58.1092 29.4767 47.4976 39.6569 43.3616 37.3346Z" fill="white" style="fill:white;fill-opacity:1;"/>
<path d="M211 216.874C205.942 124.689 211 37 117.155 37C-6.47289 37 24.4341 196.076 24.4341 214.626C24.4341 233.175 89.0569 225.306 108.164 225.306H135.698C167.728 225.306 211 232.613 211 216.874Z" fill="#A44BE1" style="fill:#A44BE1;fill:color(display-p3 0.6431 0.2941 0.8824);fill-opacity:1;"/>
<path d="M101.12 90.7495C102.645 80.9914 96.6362 71.9435 87.7 70.5406C78.7639 69.1377 70.2841 75.911 68.7599 85.6692C67.2356 95.4273 73.2442 104.475 82.1803 105.878C91.1164 107.281 99.5962 100.508 101.12 90.7495Z" fill="white" style="fill:white;fill-opacity:1;"/>
<path d="M144.689 97.5806C146.213 87.8224 140.205 78.7746 131.268 77.3717C122.332 75.9688 113.852 82.7421 112.328 92.5003C110.804 102.258 116.813 111.306 125.749 112.709C134.685 114.112 143.165 107.339 144.689 97.5806Z" fill="white" style="fill:white;fill-opacity:1;"/>
<path d="M78.5 83C80.433 83 82 81.433 82 79.5C82 77.567 80.433 76 78.5 76C76.567 76 75 77.567 75 79.5C75 81.433 76.567 83 78.5 83Z" fill="black" style="fill:black;fill-opacity:1;"/>
<path d="M123 91C125.209 91 127 89.2091 127 87C127 84.7909 125.209 83 123 83C120.791 83 119 84.7909 119 87C119 89.2091 120.791 91 123 91Z" fill="black" style="fill:black;fill-opacity:1;"/>
<path d="M91.2222 111.688C92.5 110.317 93.2465 109.963 94.4483 109.732L96.4489 109.466C97.5177 109.37 99.0118 109.299 100.737 109.4C104.156 109.6 108.713 110.495 112.565 113.427C113.486 114.128 115.028 115.706 115.028 116.976C115.028 118.246 116.568 126.347 112.565 128C108.563 129.653 91.2777 127.347 88.4997 123.5C85.7218 119.653 90 113 91.2222 111.688Z" fill="black" style="fill:black;fill-opacity:1;"/>
<path d="M74.641 63.8771C74.641 63.8771 81.8734 66.4338 90.2819 59.9995" stroke="black" style="stroke:black;stroke-opacity:1;" stroke-width="3" stroke-linecap="round" stroke-linejoin="round"/>
<path d="M134.074 65.9999C134.074 65.9999 134.95 73.6052 146.106 76.7347" stroke="black" style="stroke:black;stroke-opacity:1;" stroke-width="3" stroke-linecap="round" stroke-linejoin="round"/>
<path d="M117.5 224.5V179" stroke="black" style="stroke:black;stroke-opacity:1;" stroke-width="3" stroke-linecap="round" stroke-linejoin="round"/>
<path d="M57.7794 100.139C58.6945 108.094 69.2241 132.324 47.9634 155.436" stroke="black" style="stroke:black;stroke-opacity:1;" stroke-width="3" stroke-linecap="round" stroke-linejoin="round"/>
<path d="M152.871 163.428C141.785 137.025 143.973 128.796 153.074 106" stroke="black" style="stroke:black;stroke-opacity:1;" stroke-width="3" stroke-linecap="round"/>
<path d="M218.501 152C224.901 173.2 233.002 208.883 210.501 213.383C188.501 217.784 153.648 155.79 169.501 143.383C181.001 134.383 210.501 125.5 218.501 152Z" fill="#2C1F41" style="fill:#2C1F41;fill:color(display-p3 0.1717 0.1216 0.2533);fill-opacity:1;"/>
</svg>
