<svg width="204" height="205" viewBox="0 0 204 205" fill="none" xmlns="http://www.w3.org/2000/svg">
<path d="M33.6776 91.9969C-0.751678 98.6519 -3.55884 191.835 2.5692 199.841C8.69724 207.847 187.064 205.492 199.318 199.841C207.292 196.164 207.269 72.5546 180 27.2622C165.36 2.94566 130.78 -5.23172 95.4232 3.24365C58.9009 11.9983 60.0741 75.8281 61.9599 91.9969C53.9522 91.9969 48.2958 89.1713 33.6776 91.9969Z" fill="#FB812C" style="fill:#FB812C;fill:color(display-p3 0.9843 0.5059 0.1725);fill-opacity:1;"/>
<path d="M113.813 82.275C112.635 72.9487 104.755 66.2577 96.2124 67.3302C87.6699 68.4028 81.7 76.8328 82.8783 86.1591C84.0565 95.4854 91.9368 102.176 100.479 101.104C109.022 100.031 114.992 91.6013 113.813 82.275Z" fill="white" style="fill:white;fill-opacity:1;"/>
<path d="M148.626 78.9869C147.448 69.6606 139.567 62.9696 131.025 64.0422C122.482 65.1147 116.512 73.5447 117.691 82.871C118.869 92.1973 126.749 98.8883 135.292 97.8158C143.834 96.7432 149.804 88.3132 148.626 78.9869Z" fill="white" style="fill:white;fill-opacity:1;"/>
<path d="M131.52 90.9176C135.176 89.864 137.285 86.0466 136.231 82.3912C135.178 78.7358 131.36 76.6266 127.705 77.6802C124.049 78.7338 121.94 82.5512 122.994 86.2066C124.047 89.862 127.865 91.9712 131.52 90.9176Z" fill="black" style="fill:black;fill-opacity:1;"/>
<path d="M96.2291 94.2399C99.8845 93.1863 101.994 89.3689 100.94 85.7135C99.8865 82.058 96.0691 79.9489 92.4136 81.0025C88.7582 82.056 86.649 85.8735 87.7026 89.5289C88.7562 93.1843 92.5736 95.2935 96.2291 94.2399Z" fill="black" style="fill:black;fill-opacity:1;"/>
<path d="M79.1552 74.4615C79.1552 74.4615 87.5894 73.8643 93.2576 63.6629" stroke="black" style="stroke:black;stroke-opacity:1;" stroke-width="3" stroke-linecap="round" stroke-linejoin="round"/>
<path d="M132.336 59.0004C132.336 59.0004 135.597 66.7831 148.368 66.6721" stroke="black" style="stroke:black;stroke-opacity:1;" stroke-width="3" stroke-linecap="round" stroke-linejoin="round"/>
<path d="M54.126 204C53.1773 174 57.162 114 80.6911 114C104.22 114 111.368 144.471 112 159.707" stroke="black" style="stroke:black;stroke-opacity:1;" stroke-width="3"/>
<path d="M3 137C10.4083 143.974 32.9798 157.73 64 156.97" stroke="black" style="stroke:black;stroke-opacity:1;" stroke-width="3"/>
<path d="M124 132C117.882 143.612 93.3176 166.454 44 164.927" stroke="black" style="stroke:black;stroke-opacity:1;" stroke-width="3"/>
<path d="M89 44.1493C101.287 37.7668 123.189 41.224 114.642 34.0436C106.094 26.8633 90.6026 39.8943 107.964 42.0218C125.325 44.1493 130.935 23.9265 119.449 27.9269C107.964 31.9273 94.6091 45.4791 116.244 46.0109C137.879 46.5428 148.029 34.0436 135.208 34.0436C122.387 34.0436 101.821 27.3952 116.244 22.6083C130.667 17.8214 136.544 51.3297 112.772 48.6703C89 46.0109 94.8762 32.647 104.759 27.9269C114.642 23.2068 131.736 20.4802 141.619 27.9269C151.501 35.3736 151.768 46.3701 140.55 45.4792C129.332 44.5884 110.635 47.3403 105.827 30.8523C101.019 14.3643 132.603 12.2731 137.879 21.2788C143.488 30.8521 138.146 43.6175 131.736 50C123.5 54 127 26.5 153.5 18" stroke="black" style="stroke:black;stroke-opacity:1;" stroke-width="3" stroke-linecap="round"/>
</svg>
