<svg width="204" height="191" viewBox="0 0 204 191" fill="none" xmlns="http://www.w3.org/2000/svg">
<path d="M202 170.973C198.566 202.493 147.684 185.186 97.2084 185.186C78.5543 184.511 11.1382 201.624 4.99967 179.5C-5.50121 141.654 2.00025 101.5 20.9462 104.828C32.8345 106.916 17.3293 32.3909 49.5 15.5007C89.5 -5.5 114 -1.99919 150 10.5005C184.984 22.6474 166.887 105.375 182.249 104.828C197.611 104.281 207.5 120.5 202 170.973Z" fill="#8FD86F" style="fill:#8FD86F;fill:color(display-p3 0.5597 0.8467 0.4346);fill-opacity:1;"/>
<path d="M96 184.5C105.5 139 89.5 107.5 65 106C49 106 31.8333 106.5 23.5 106" stroke="black" style="stroke:black;stroke-opacity:1;" stroke-width="3" stroke-linecap="round"/>
<path d="M97.1068 57.8179C97.4057 49.5064 91.4773 42.542 83.8653 42.2623C76.2532 41.9827 69.8402 48.4938 69.5412 56.8052C69.2423 65.1167 75.1708 72.0812 82.7828 72.3608C90.3948 72.6405 96.8079 66.1294 97.1068 57.8179Z" fill="white" style="fill:white;fill-opacity:1;"/>
<path d="M134.216 59.1734C134.515 50.8619 128.587 43.8974 120.975 43.6178C113.363 43.3381 106.95 49.8492 106.651 58.1607C106.352 66.4722 112.28 73.4367 119.892 73.7163C127.504 73.9959 133.917 67.4849 134.216 59.1734Z" fill="white" style="fill:white;fill-opacity:1;"/>
<path d="M120.031 67.2185C123.373 66.8189 125.758 63.7858 125.359 60.4439C124.959 57.102 121.926 54.7168 118.584 55.1163C115.242 55.5159 112.857 58.549 113.257 61.8909C113.656 65.2328 116.689 67.618 120.031 67.2185Z" fill="black" style="fill:black;fill-opacity:1;"/>
<path d="M82.498 65.8259C85.84 65.4263 88.2252 62.3932 87.8256 59.0513C87.426 55.7094 84.393 53.3242 81.0511 53.7238C77.7091 54.1233 75.3239 57.1564 75.7235 60.4983C76.1231 63.8402 79.1561 66.2255 82.498 65.8259Z" fill="black" style="fill:black;fill-opacity:1;"/>
<path d="M69.1203 45.3364C69.1203 45.3364 77.9246 47.9419 87.2839 39.3507" stroke="black" style="stroke:black;stroke-opacity:1;" stroke-width="3" stroke-linecap="round" stroke-linejoin="round"/>
<path d="M116.397 40.0412C116.397 40.0412 120.47 46.9005 134 45.9144" stroke="black" style="stroke:black;stroke-opacity:1;" stroke-width="3" stroke-linecap="round" stroke-linejoin="round"/>
<path d="M94.9998 77.9991C94.9998 77.9991 99.6357 77.9936 105.609 80.623" stroke="black" style="stroke:black;stroke-opacity:1;" stroke-width="3" stroke-linecap="round" stroke-linejoin="round"/>
<path d="M111.748 185C105.582 157.166 102.548 101.9 139.748 103.5C155.95 103.5 171.5 103.5 176.5 103.5" stroke="black" style="stroke:black;stroke-opacity:1;" stroke-width="3" stroke-linecap="round"/>
<path d="M82 96.5C47.5 100 54.1 86.4 48.5 74" stroke="black" style="stroke:black;stroke-opacity:1;" stroke-width="3" stroke-linecap="round"/>
<path d="M156 73.5C157.5 91 151 99.5 127.5 92.5" stroke="black" style="stroke:black;stroke-opacity:1;" stroke-width="3" stroke-linecap="round"/>
</svg>
