<svg width="236" height="169" viewBox="0 0 236 169" fill="none" xmlns="http://www.w3.org/2000/svg">
<path d="M232.399 157.027C225.406 170.714 15.7308 174.136 5.74833 157.027C-4.23418 139.918 -4.51406 3.44632 65.1573 0.315947C123.5 -2.30543 161.507 11.4662 165.002 38.6111C180.977 33.5927 229.317 38.6146 232.399 50.2478C234.394 57.7759 239.393 143.34 232.399 157.027Z" fill="#E14B4B" style="fill:#E14B4B;fill:color(display-p3 0.8824 0.2941 0.2941);fill-opacity:1;"/>
<path d="M121.001 39.1113C109.167 62.278 94.8007 109.511 132.001 113.111C169.201 116.711 197.167 110.611 206.5 107.111" stroke="black" style="stroke:black;stroke-opacity:1;" stroke-width="3" stroke-linecap="round" stroke-linejoin="round"/>
<path d="M88.5 31.1113C113.667 48.278 160.4 92.4113 146 131.611" stroke="black" style="stroke:black;stroke-opacity:1;" stroke-width="3" stroke-linecap="round" stroke-linejoin="round"/>
<path d="M108 167.111C133 164 180 152.5 165 88.6113" stroke="black" style="stroke:black;stroke-opacity:1;" stroke-width="3" stroke-linecap="round" stroke-linejoin="round"/>
<path d="M50.1351 112.934C41.6855 111.776 33.9716 117.111 32.9057 124.849C31.8397 132.587 37.8253 139.798 46.2749 140.955C54.7245 142.113 62.4384 136.778 63.5043 129.04C64.5703 121.302 58.5847 114.091 50.1351 112.934Z" fill="white" style="fill:white;fill-opacity:1;"/>
<path d="M55.3246 75.2082C46.875 74.0508 39.1611 79.3854 38.0951 87.1233C37.0292 94.8612 43.0148 102.072 51.4644 103.23C59.9139 104.387 67.6278 99.0524 68.6938 91.3145C69.7597 83.5766 63.7741 76.3656 55.3246 75.2082Z" fill="white" style="fill:white;fill-opacity:1;"/>
<path d="M35.1511 141.471C35.1511 141.471 36.6082 133.939 28.9993 126.577" stroke="black" style="stroke:black;stroke-opacity:1;" stroke-width="3" stroke-linecap="round" stroke-linejoin="round"/>
<path d="M33.9831 84.7901C33.9831 84.7901 41.5689 83.7599 44.4704 72.5426" stroke="black" style="stroke:black;stroke-opacity:1;" stroke-width="3" stroke-linecap="round" stroke-linejoin="round"/>
<path d="M74.7158 108.158C74.7158 108.158 69.8799 110.536 69.0549 120.667" stroke="black" style="stroke:black;stroke-opacity:1;" stroke-width="3" stroke-linecap="round" stroke-linejoin="round"/>
<path d="M54.9217 130.669C54.8416 126.413 51.3269 123.028 47.0714 123.109C42.8159 123.189 39.4311 126.703 39.5112 130.959C39.5913 135.214 43.106 138.599 47.3615 138.519C51.617 138.439 55.0018 134.924 54.9217 130.669Z" fill="black" style="fill:black;fill-opacity:1;"/>
<path d="M60.5564 92.3162C60.4763 88.0607 56.9616 84.6759 52.7061 84.756C48.4507 84.8361 45.0658 88.3508 45.146 92.6063C45.2261 96.8618 48.7408 100.247 52.9963 100.166C57.2517 100.086 60.6365 96.5717 60.5564 92.3162Z" fill="black" style="fill:black;fill-opacity:1;"/>
</svg>
