<svg width="236" height="188" viewBox="0 0 236 188" fill="none" xmlns="http://www.w3.org/2000/svg">
<path d="M0.512924 50.9627C-1.46248 58.4066 2.43295 143.015 9.35928 156.549C12.9827 163.629 44.8549 176.929 98.9838 177C134.636 177 127.762 159.48 133.15 159.201C176.725 171.067 207.148 164.954 223.766 145.852C240.385 126.75 253.973 12.6481 166.139 1.58875C108.756 -5.63648 70.72 12.6144 67.2592 39.4561C51.4384 34.4937 3.56552 39.4595 0.512924 50.9627Z" fill="#5E5BD4" style="fill:#5E5BD4;fill:color(display-p3 0.3671 0.3576 0.8316);fill-opacity:1;"/>
<path d="M187.028 92.0164C187.028 92.0164 182.685 98.9395 188.464 103.215" stroke="black" style="stroke:black;stroke-opacity:1;" stroke-width="3" stroke-linecap="round" stroke-linejoin="round"/>
<path d="M190.217 120.566C190.217 120.566 185.321 125.421 190.786 130.126C191.663 133.078 193.109 133.572 191.663 139.014C190.217 144.456 188.771 145.445 190.217 151.382C191.663 157.319 186.717 161.771 193.148 166.223C199.58 170.676 205.515 172.655 195.126 173.15C184.737 173.644 181.769 181.56 198.589 183.539" stroke="black" style="stroke:black;stroke-opacity:1;" stroke-width="3" stroke-linecap="round" stroke-linejoin="round"/>
<path fill-rule="evenodd" clip-rule="evenodd" d="M180.768 119.271C180.768 119.272 180.767 119.272 179.641 118.306L180.767 119.272C180.305 119.811 179.527 119.947 178.909 119.598C178.296 119.251 178.013 118.521 178.228 117.852C178.228 117.849 178.23 117.843 178.233 117.834C178.24 117.809 178.254 117.757 178.272 117.679C178.308 117.521 178.362 117.253 178.419 116.859C178.531 116.072 178.651 114.782 178.651 112.864C178.651 111.076 178.317 109.915 178.029 109.244C177.885 108.905 177.748 108.683 177.663 108.561C177.621 108.499 177.591 108.462 177.579 108.448C177.578 108.447 177.577 108.446 177.577 108.445C177.075 107.918 177.029 107.102 177.473 106.522C177.924 105.931 178.743 105.765 179.389 106.134C181.375 107.269 182.577 108.705 183.131 110.308C183.677 111.884 183.536 113.444 183.174 114.746C182.813 116.046 182.209 117.171 181.716 117.954C181.466 118.35 181.236 118.67 181.067 118.895C180.982 119.008 180.911 119.097 180.86 119.161C180.834 119.192 180.813 119.218 180.797 119.236L180.778 119.259L180.772 119.267L180.769 119.27L180.768 119.271Z" fill="black" style="fill:black;fill-opacity:1;"/>
<path d="M42 119.283C69.2859 122.173 117.033 123.222 124.351 107.323C130.268 94.4653 118.598 84.897 115.475 84" stroke="black" style="stroke:black;stroke-opacity:1;" stroke-width="3" stroke-linecap="round" stroke-linejoin="round"/>
<path d="M65.8599 73.7152C77.3357 63.3812 107.61 43.4735 136.903 46.5152" stroke="black" style="stroke:black;stroke-opacity:1;" stroke-width="3" stroke-linecap="round" stroke-linejoin="round"/>
</svg>
