<svg width="273" height="261" viewBox="0 0 273 261" fill="none" xmlns="http://www.w3.org/2000/svg">
<path d="M129 85C114.194 88.217 82.8649 99.1208 76.0002 117" stroke="black" style="stroke:black;stroke-opacity:1;" stroke-width="3" stroke-linecap="round"/>
<path d="M64.5 51.5C67.8333 59.0001 74.7999 78.3003 76 95.5" stroke="black" style="stroke:black;stroke-opacity:1;" stroke-width="3" stroke-linecap="round"/>
<path d="M93.5002 90.9994C85.5001 86.9988 63.0002 90.9998 60.0002 99.4994C57.0002 107.999 68.9522 152.815 73.5002 158.5C79.5005 166 98.5004 160.5 104 155C109.712 149.288 101.5 95 93.5002 90.9994Z" fill="#FB812C" style="fill:#FB812C;fill:color(display-p3 0.9843 0.5059 0.1725);fill-opacity:1;"/>
<path d="M156.852 134.878C143.662 142.335 113.025 155.055 96.0002 146.284" stroke="black" style="stroke:black;stroke-opacity:1;" stroke-width="3" stroke-linecap="round"/>
<path d="M278.088 -1.12141C261.328 -28.7187 214.836 -62.1118 201.238 -53.8534C177.398 -32.3707 173.197 -11.6093 165.692 -7.0517C108.889 32.0322 108.116 71.877 134.89 112.91C175.374 174.954 233.846 146.658 277.021 122.602C294.656 112.776 320.88 104.72 326.243 101.463C342.269 91.7295 312.283 38.3138 302.285 21.8509C299.458 17.1966 278.983 17.2314 277.021 14C275.105 10.845 281.926 5.198 278.088 -1.12141Z" fill="#E14B4B" style="fill:#E14B4B;fill:color(display-p3 0.8824 0.2941 0.2941);fill-opacity:1;"/>
<path d="M174.523 91.358C181.389 85.2259 191.751 85.6017 197.669 92.1973C203.586 98.7929 202.818 109.111 195.952 115.243C189.087 121.375 178.724 120.999 172.807 114.403C166.889 107.808 167.658 97.49 174.523 91.358Z" fill="white" style="fill:white;fill-opacity:1;"/>
<path d="M147.431 59.1021C154.297 52.9701 164.659 53.3459 170.576 59.9415C176.494 66.537 175.725 76.8548 168.86 82.9868C161.994 89.1189 151.632 88.7431 145.715 82.1475C139.797 75.5519 140.566 65.2341 147.431 59.1021Z" fill="white" style="fill:white;fill-opacity:1;"/>
<path d="M145.604 79.0346C143.076 75.2016 144.024 70.189 147.721 67.8385C151.417 65.4881 156.463 66.6898 158.99 70.5228C161.518 74.3557 160.57 79.3683 156.873 81.7188C153.177 84.0693 148.131 82.8675 145.604 79.0346Z" fill="black" style="fill:black;fill-opacity:1;"/>
<path d="M172.011 110.664C169.307 106.563 170.321 101.199 174.277 98.6842C178.232 96.1692 183.631 97.4551 186.336 101.556C189.04 105.658 188.026 111.021 184.07 113.536C180.115 116.051 174.716 114.765 172.011 110.664Z" fill="black" style="fill:black;fill-opacity:1;"/>
<path d="M208.031 96.3047C207.912 93.09 205.902 85.6642 198.816 81.6787" stroke="black" style="stroke:black;stroke-opacity:1;" stroke-width="3" stroke-linecap="round"/>
<path d="M169.514 51.5664C172.709 51.9464 179.947 54.5533 183.343 61.9403" stroke="black" style="stroke:black;stroke-opacity:1;" stroke-width="3" stroke-linecap="round"/>
<path d="M49.8691 36.9963C49.8691 36.9963 46.6818 17.6894 55.3771 16.5742C64.0725 15.459 66.0834 31.6979 66.0834 31.6979C66.0834 31.6979 75.3313 14.0151 86.4174 19.9082C98.948 26.5692 77.4108 38.2802 77.4108 38.2802C77.4108 38.2802 107.241 32.1831 102.547 47.2517C97.8517 62.3202 78.8591 50.2896 78.8591 50.2896C78.8591 50.2896 93.331 61.5492 77.9171 69.2886C62.5033 77.028 61.9854 55.7925 61.9854 55.7925C61.9854 55.7925 57.4532 79.5058 42.8326 73.7882C28.212 68.0706 48.6027 52.3508 48.6027 52.3508C48.6027 52.3508 27.3897 59.1727 30.1035 48.3834C32.8174 37.5941 49.8638 36.997 49.8638 36.997L49.8691 36.9963Z" fill="#FB812C" style="fill:#FB812C;fill:color(display-p3 0.9843 0.5059 0.1725);fill-opacity:1;"/>
<circle cx="63.2503" cy="44.1315" r="8.38095" transform="rotate(-7.30832 63.2503 44.1315)" fill="#F7F7F7" style="fill:#F7F7F7;fill:color(display-p3 0.9700 0.9700 0.9700);fill-opacity:1;"/>
<circle cx="154.027" cy="96.582" r="4" fill="black" style="fill:black;fill-opacity:1;"/>
</svg>
