<svg width="376" height="376" viewBox="0 0 376 376" fill="none" xmlns="http://www.w3.org/2000/svg">
<path d="M373.66 303.447C377.584 271.061 336.579 262.812 296.19 262.46C248.428 256.445 120.629 242.7 63.0055 242.701C2.65287 242.701 -4.13644 294.376 29.2436 304.732C73.0536 318.323 166.239 321.524 206.924 322.922L207.537 322.943C247.891 324.33 307.389 328.446 326.676 327.037C354.581 324.999 370.801 327.037 373.66 303.447Z" fill="#B6DDA5" style="fill:#B6DDA5;fill:color(display-p3 0.7137 0.8667 0.6471);fill-opacity:1;"/>
<path d="M130.99 334.785C86.4894 329.664 53.396 327.357 48.5744 306.118C42.0517 277.387 43.3666 255.908 49.9411 241.443C53.4475 230.923 63.5284 224.348 63.5284 219.527C69.9244 138.458 87.0349 74 182.542 74C335.806 74 303.442 234.74 303.442 259.699C303.442 273.53 275.954 279.881 240.893 279.881C234.825 279.881 246.287 329.664 230.441 332.094C206.032 335 183.582 338.41 149.869 336.392L130.99 334.785Z" fill="#FF6EE8" style="fill:#FF6EE8;fill:color(display-p3 1.0000 0.4300 0.9088);fill-opacity:1;"/>
<ellipse cx="129.795" cy="217" rx="13.5" ry="14" fill="#B6DDA5" style="fill:#B6DDA5;fill:color(display-p3 0.7137 0.8667 0.6471);fill-opacity:1;"/>
<ellipse cx="129.795" cy="216.5" rx="5.5" ry="4.5" fill="#A44BE1" style="fill:#A44BE1;fill:color(display-p3 0.6431 0.2941 0.8824);fill-opacity:1;"/>
<path d="M125.117 198.026C118.581 199.986 104.874 201.256 98.7504 197.995C98.1723 197.688 97.6059 197.348 96.9697 197.192C95.3062 196.784 93.5741 196.959 92.6006 198.372C87.0773 206.386 86.6582 231.38 92.5679 235.689C99.2262 240.544 122.624 239.468 126.789 236.251C130.954 233.035 132.53 195.804 125.117 198.026Z" fill="#B6DDA5" style="fill:#B6DDA5;fill:color(display-p3 0.7137 0.8667 0.6471);fill-opacity:1;"/>
<path d="M148.735 156.547C149.151 145.031 140.916 135.381 130.342 134.994C119.769 134.606 110.86 143.628 110.445 155.144C110.03 166.66 118.265 176.31 128.838 176.698C139.412 177.085 148.32 168.064 148.735 156.547Z" fill="white" style="fill:white;fill-opacity:1;"/>
<path d="M200.283 158.428C200.699 146.912 192.464 137.262 181.89 136.875C171.317 136.487 162.408 145.509 161.993 157.025C161.578 168.541 169.813 178.191 180.387 178.579C190.96 178.966 199.868 169.944 200.283 158.428Z" fill="white" style="fill:white;fill-opacity:1;"/>
<path d="M183.72 169.957C188.363 169.404 191.676 165.201 191.121 160.571C190.566 155.94 186.353 152.635 181.71 153.189C177.068 153.743 173.755 157.945 174.31 162.576C174.865 167.206 179.078 170.511 183.72 169.957Z" fill="black" style="fill:black;fill-opacity:1;"/>
<path d="M131.584 168.028C136.227 167.474 139.54 163.271 138.985 158.641C138.43 154.011 134.217 150.706 129.574 151.259C124.932 151.813 121.619 156.015 122.174 160.646C122.729 165.276 126.942 168.581 131.584 168.028Z" fill="black" style="fill:black;fill-opacity:1;"/>
<path d="M131.958 128.199C131.958 128.199 121.777 126.128 111.697 136.309" stroke="black" style="stroke:black;stroke-opacity:1;" stroke-width="3" stroke-linecap="round" stroke-linejoin="round"/>
<path d="M200.036 136.98C200.036 136.98 195.362 127.746 179.717 128.988" stroke="black" style="stroke:black;stroke-opacity:1;" stroke-width="3" stroke-linecap="round" stroke-linejoin="round"/>
<path d="M148.1 149.609C146.042 145.838 106.402 145.29 101.37 148.735C99.1715 152.609 100.332 170.78 102.261 172.638C104.189 174.496 143.761 173.266 147 172.976C150.239 172.687 149.519 152.21 148.1 149.609Z" stroke="black" style="stroke:black;stroke-opacity:1;" stroke-width="3"/>
<path d="M203.392 149.578C201.335 145.807 161.694 145.259 156.662 148.704C154.464 152.578 155.625 170.749 157.553 172.607C159.482 174.465 199.053 173.235 202.292 172.945C205.532 172.656 204.811 152.179 203.392 149.578Z" stroke="black" style="stroke:black;stroke-opacity:1;" stroke-width="3"/>
<path d="M108.914 312C106.977 291.353 108.914 255.769 124.551 242.59C131.7 237.757 136.614 236.879 139.295 236" stroke="black" style="stroke:black;stroke-opacity:1;" stroke-width="3" stroke-linecap="round"/>
<path d="M149.295 159C150.372 158.245 153.08 157.189 155.295 159" stroke="black" style="stroke:black;stroke-opacity:1;" stroke-width="3" stroke-linecap="round"/>
<path d="M205.295 160C218.033 152.008 245.267 138.954 252.295 150.676" stroke="black" style="stroke:black;stroke-opacity:1;" stroke-width="3" stroke-linecap="round"/>
<path d="M84.8066 190C82.2228 199.221 81.1031 217.929 97.2952 219" stroke="black" style="stroke:black;stroke-opacity:1;" stroke-width="3" stroke-linecap="round"/>
<path fill-rule="evenodd" clip-rule="evenodd" d="M97.3104 197.83C96.409 198.273 95.9353 198.696 95.7391 199.008C95.3411 199.643 94.5116 199.83 93.8863 199.426C93.261 199.022 91.9721 198.912 92.37 198.278C92.9566 197.342 95.0554 195.913 96.1391 195.38C97.2502 194.833 98.604 194.388 100.09 194.037C103.065 193.334 106.725 192.973 110.386 193.002C114.045 193.031 117.779 193.45 120.893 194.351C123.931 195.231 126.878 196.424 128.158 198.731C128.521 199.387 128.12 200.456 127.474 200.825C126.828 201.194 126.01 200.961 125.646 200.306C124.913 198.983 123.046 197.806 120.157 196.97C117.343 196.155 113.864 195.752 110.365 195.725C106.87 195.697 103.427 196.044 100.699 196.689C99.3329 197.012 98.1844 197.4 97.3104 197.83Z" fill="#B6DDA5" style="fill:#B6DDA5;fill:color(display-p3 0.7137 0.8667 0.6471);fill-opacity:1;"/>
<path d="M203.295 202C201.106 213.178 162.132 231.956 136.295 218.096" stroke="black" style="stroke:black;stroke-opacity:1;" stroke-width="3" stroke-linecap="round"/>
<path d="M145.295 185C147.124 187.264 152.884 190.433 161.295 185" stroke="black" style="stroke:black;stroke-opacity:1;" stroke-width="3" stroke-linecap="round"/>
</svg>
