<svg width="24" height="25" viewBox="0 0 24 25" fill="none" xmlns="http://www.w3.org/2000/svg">
<path fill-rule="evenodd" clip-rule="evenodd" d="M18.7509 8.77299C18.7509 -10.9954 18.7509 44.1956 18.7509 8.77299V8.77299ZM14.1222 1.8943C12.9507 0.722732 11.0512 0.722732 9.87959 1.8943L8.27297 3.50092H6.00091C4.34405 3.50092 3.00091 4.84407 3.00091 6.50092V8.77298L1.3943 10.3796C0.222732 11.5512 0.222732 13.4507 1.3943 14.6222L3.00091 16.2288V18.5009C3.00091 20.1578 4.34405 21.5009 6.00091 21.5009H8.273L9.87959 23.1075C11.0512 24.2791 12.9507 24.2791 14.1222 23.1075L15.7288 21.5009H18.0009C19.6578 21.5009 21.0009 20.1578 21.0009 18.5009V16.2288L22.6075 14.6222C23.7791 13.4507 23.7791 11.5512 22.6075 10.3796L21.0009 8.77299V6.50092C21.0009 4.84407 19.6578 3.50092 18.0009 3.50092H15.7288L14.1222 1.8943ZM16.651 10.1759C17.0238 9.67886 16.923 8.97371 16.426 8.60092C15.9289 8.22812 15.2238 8.32886 14.851 8.82592L11.1292 13.7882L9.04646 11.7054C8.60712 11.2661 7.89481 11.2661 7.45547 11.7054C7.01613 12.1448 7.01613 12.8571 7.45547 13.2964L10.4555 16.2964C10.6861 16.527 11.0054 16.6462 11.3307 16.6231C11.656 16.6 11.9553 16.4368 12.151 16.1759L16.651 10.1759Z" fill="#FF6900" style="fill:#FF6900;fill:color(display-p3 1.0000 0.4106 0.0000);fill-opacity:1;"/>
</svg>
