<svg width="632" height="615" viewBox="0 0 632 615" fill="none" xmlns="http://www.w3.org/2000/svg">
<path fill-rule="evenodd" clip-rule="evenodd" d="M29.6194 -1.31076e-06C13.0508 -5.86847e-07 -0.380642 13.4315 -0.380641 30L-0.38064 48.798C-0.38064 49.1765 -0.373633 49.5533 -0.359741 49.9283C-0.126678 56.2205 -3.37189e-05 62.7035 -3.36224e-05 69L-2.52134e-05 585C-2.49359e-05 601.569 13.4314 615 30 615L602 615C618.569 615 632 601.569 632 585L632 69C632 52.4314 618.568 39 602 39L161.84 39C156.87 39 152.84 34.9706 152.84 30C152.84 13.4315 139.409 -6.10768e-06 122.84 -5.38377e-06L29.6194 -1.31076e-06Z" fill="#F7F7F7" style="fill:#F7F7F7;fill:color(display-p3 0.9700 0.9700 0.9700);fill-opacity:1;"/>
</svg>
