<svg width="58" height="64" viewBox="0 0 58 64" fill="none" xmlns="http://www.w3.org/2000/svg">
<g clip-path="url(#clip0_1244_12878)">
<path d="M55.9187 6.77575C54.4515 3.0305 50.5157 1.19769 45.4931 3.64161C40.5029 6.07007 38.9158 10.3291 40.3862 14.0768C41.8533 17.8221 45.9887 19.8305 50.8109 17.2079C56.029 14.3717 57.3882 10.5203 55.9187 6.77575ZM51.9712 9.29801C51.7681 9.7489 51.0377 10.9347 48.6444 12.2345C48.1373 12.5115 47.6395 12.7161 47.1607 12.8457C45.6779 13.247 44.5424 12.8489 44.3004 12.2357C44.08 11.6731 44.8182 10.0027 47.5223 8.68871C48.0312 8.43786 48.5332 8.24877 49.0071 8.12051C50.4508 7.7298 51.7383 7.94365 52.0044 8.61692C52.1001 8.86385 52.1325 8.94491 51.9712 9.29801Z" fill="#FB812C" style="fill:#FB812C;fill:color(display-p3 0.9843 0.5059 0.1725);fill-opacity:1;"/>
<path d="M24.868 64C18.6871 64 13.1816 61.9185 8.94308 57.9815C4.63772 53.9817 1.87883 48.2427 1.17364 41.8223C-0.24169 28.944 6.90175 14.3137 26.0458 10.6593C28.3345 10.2229 30.5738 10 32.7018 10C39.0781 10 44.685 11.9999 48.9161 15.7862C53.2908 19.698 56.0942 25.4528 56.8118 31.983C57.6555 39.6717 55.6439 46.9084 51.148 52.3586C46.9144 57.4917 40.5232 61.1085 32.1525 63.099C29.6608 63.6923 27.2112 63.9937 24.868 63.9937V64Z" fill="#FB812C" style="fill:#FB812C;fill:color(display-p3 0.9843 0.5059 0.1725);fill-opacity:1;"/>
<path d="M48.8773 32.927C49.9112 42.2587 44.4568 50.1 30.8656 53.3122C18.2994 56.2817 10.1447 49.2335 9.11077 39.9018C8.07686 30.5701 14.296 21.944 27.1224 19.5165C40.0318 17.0721 47.8433 23.5953 48.8773 32.927Z" fill="white" style="fill:white;fill-opacity:1;"/>
<path d="M29.4385 25L29 36.8046L35 44" stroke="black" style="stroke:black;stroke-opacity:1;" stroke-width="2" stroke-linecap="round" stroke-linejoin="round"/>
</g>
<defs>
<clipPath id="clip0_1244_12878">
<rect width="58" height="64" fill="white" style="fill:white;fill-opacity:1;"/>
</clipPath>
</defs>
</svg>
