<svg width="270" height="193" viewBox="0 0 270 193" fill="none" xmlns="http://www.w3.org/2000/svg">
<path d="M79.4302 -26.0345C84.2207 61.4012 77.8997 139 166.79 139C274.445 139 251.348 -8.44077 251.348 -26.0345C251.348 -43.6283 193.405 -39.6034 175.307 -39.6034C170.19 -39.6034 167.174 -10.3847 163.622 -10.3847C160.153 -10.3847 156.173 -39.6034 149.226 -39.6034C118.887 -39.6034 79.4302 -40.9626 79.4302 -26.0345Z" fill="#FB812C" style="fill:#FB812C;fill:color(display-p3 0.9843 0.5059 0.1725);fill-opacity:1;"/>
<path d="M42.7217 114C17.4271 114 8 95.4419 8 82.9884C8 71.0233 15.0464 51 40.0435 51C65.0406 51 74 70.5349 74 82.9884C74 95.4419 68.0164 114 42.7217 114Z" fill="#B6DDA5" style="fill:#B6DDA5;fill:color(display-p3 0.7137 0.8667 0.6471);fill-opacity:1;"/>
<path d="M43 65V84.1053L30 98" stroke="black" style="stroke:black;stroke-opacity:1;" stroke-width="3" stroke-linecap="round"/>
<path d="M161.777 82.9212C161.633 92.1252 154.333 99.49 145.473 99.3708C136.613 99.2517 129.547 91.6937 129.692 82.4896C129.836 73.2856 137.135 65.9208 145.995 66.04C154.856 66.1591 161.921 73.7171 161.777 82.9212Z" fill="white" style="fill:white;fill-opacity:1;"/>
<path d="M203.857 84.8626C203.712 94.0666 196.413 101.431 187.553 101.312C178.693 101.193 171.627 93.6351 171.771 84.431C171.915 75.227 179.215 67.8622 188.075 67.9814C196.935 68.1006 204.001 75.6585 203.857 84.8626Z" fill="white" style="fill:white;fill-opacity:1;"/>
<path d="M183.374 78.4513C187.906 79.1907 190.949 83.285 190.172 87.5962C189.395 91.9073 185.091 94.8028 180.56 94.0634C176.029 93.324 172.985 89.2297 173.763 84.9186C174.54 80.6074 178.843 77.7119 183.374 78.4513Z" fill="black" style="fill:black;fill-opacity:1;"/>
<path d="M142.221 76.4325C147.069 77.2236 150.325 81.6046 149.494 86.2176C148.662 90.8306 144.058 93.9288 139.209 93.1376C134.361 92.3464 131.104 87.9655 131.936 83.3525C132.767 78.7395 137.372 75.6413 142.221 76.4325Z" fill="black" style="fill:black;fill-opacity:1;"/>
<path d="M164.262 62.54C164.262 62.54 168.777 61.4592 174.925 62.3906" stroke="black" style="stroke:black;stroke-opacity:1;" stroke-width="3" stroke-linecap="round" stroke-linejoin="round"/>
<path d="M135.43 104.207C137.875 106.298 144.697 109.853 152.43 107.344" stroke="black" style="stroke:black;stroke-opacity:1;" stroke-width="3" stroke-linecap="round"/>
<path d="M194.43 106.207C191.986 108.298 185.164 111.853 177.43 109.344" stroke="black" style="stroke:black;stroke-opacity:1;" stroke-width="3" stroke-linecap="round"/>
<path d="M247.43 116C243.379 105.161 250.975 48.2791 234.43 44.4999" stroke="black" style="stroke:black;stroke-opacity:1;" stroke-width="3" stroke-linecap="round" stroke-linejoin="round"/>
<path d="M88.93 115C84.8783 104.161 89.4299 58.9996 95.4298 44.4997" stroke="black" style="stroke:black;stroke-opacity:1;" stroke-width="3" stroke-linecap="round" stroke-linejoin="round"/>
</svg>
