<svg width="56" height="56" viewBox="0 0 56 56" fill="none" xmlns="http://www.w3.org/2000/svg">
<path d="M48 42.4444C48 45.5133 45.5133 48 42.4444 48H13.5556C10.4878 48 8 45.5133 8 42.4444V13.5556C8 10.4867 10.4878 8 13.5556 8H42.4444C45.5133 8 48 10.4867 48 13.5556V42.4444Z" fill="#0288D1" style="fill:#0288D1;fill:color(display-p3 0.0078 0.5333 0.8196);fill-opacity:1;"/>
<path d="M14.6666 22.4438H20.2222V41.3327H14.6666V22.4438ZM17.4277 20.2216H17.3966C15.7388 20.2216 14.6666 18.986 14.6666 17.4427C14.6666 15.866 15.7722 14.666 17.46 14.666C19.15 14.666 20.1911 15.866 20.2222 17.4427C20.2222 18.9849 19.15 20.2216 17.4277 20.2216ZM41.3333 41.3327H35.7777V31.2227C35.7777 28.7805 34.4166 27.1138 32.2311 27.1138C30.5633 27.1138 29.6611 28.2382 29.2233 29.3249C29.0633 29.7138 29.1111 30.7893 29.1111 31.3327V41.3327H23.5555V22.4438H29.1111V25.3505C29.9122 24.1105 31.1666 22.4438 34.3755 22.4438C38.3511 22.4438 41.3322 24.9438 41.3322 30.526L41.3333 41.3327Z" fill="white" style="fill:white;fill-opacity:1;"/>
</svg>
