<svg width="61" height="19" viewBox="0 0 61 19" fill="none" xmlns="http://www.w3.org/2000/svg">
<path d="M1 2.0026H6.5275C7.03 2.0026 8.5375 1.83594 9.2075 4.16927C9.71 5.66927 10.38 8.0026 11.385 11.5026H11.72C12.725 7.83594 13.5625 5.33594 13.8975 4.16927C14.5675 1.83594 16.2425 2.0026 16.9125 2.0026H22.105V18.0026H16.745V8.5026H16.41L13.5625 18.0026H9.5425L6.695 8.5026H6.1925V18.0026H1M24.2825 2.0026H29.6425V11.5026H30.145L33.6625 3.66927C34.3325 2.16927 35.84 2.0026 35.84 2.0026H40.865V18.0026H35.505V8.5026H35.17L31.6525 16.3359C30.9825 17.8359 29.3075 18.0026 29.3075 18.0026H24.2825M48.0675 13.1693V18.0026H43.0425V9.66927H59.4575C58.7875 11.6693 56.4425 13.1693 53.7625 13.1693" fill="#06764D" style="fill:#06764D;fill:color(display-p3 0.0235 0.4627 0.3020);fill-opacity:1;"/>
<path d="M59.7925 8.66862C60.4625 5.66862 58.4525 2.00195 54.0975 2.00195H42.7075C43.0425 5.50195 46.0575 8.66862 49.24 8.66862" fill="#06764D" style="fill:#06764D;fill:color(display-p3 0.0235 0.4627 0.3020);fill-opacity:1;"/>
</svg>
