<svg width="79" height="21" viewBox="0 0 79 21" fill="none" xmlns="http://www.w3.org/2000/svg">
<g clip-path="url(#clip0_1882_6509)">
<path d="M25.2614 4.19922C25.0988 4.19922 24.9607 4.31757 24.9353 4.47872L23.0533 16.4458C23.0464 16.4895 23.0491 16.5342 23.0611 16.5768C23.0731 16.6193 23.0942 16.6588 23.1229 16.6924C23.1516 16.726 23.1872 16.753 23.2273 16.7716C23.2674 16.7901 23.311 16.7997 23.3551 16.7997H25.587C25.7494 16.7997 25.8877 16.6811 25.9131 16.5202L26.466 13.0059C26.4911 12.845 26.6295 12.7264 26.7921 12.7264H28.8213C31.1922 12.7264 33.2048 10.9919 33.5725 8.64152C33.9431 6.27127 32.0963 4.20436 29.4788 4.19922H25.2614ZM27.431 6.87073H29.0545C30.3911 6.87073 30.8264 7.66152 30.6888 8.53604C30.5512 9.41243 29.8752 10.058 28.5822 10.058H26.9297L27.431 6.87073ZM38.1118 7.68421C37.5483 7.68631 36.8998 7.80209 36.1718 8.10615C34.5018 8.80408 33.6998 10.2465 33.3592 11.2981C33.3592 11.2981 32.2753 14.5064 34.7243 16.269C34.7243 16.269 36.9957 17.9659 39.5525 16.1644L39.5084 16.4458C39.5016 16.4895 39.5043 16.5341 39.5163 16.5766C39.5282 16.6192 39.5493 16.6586 39.5779 16.6922C39.6065 16.7259 39.6421 16.7529 39.6821 16.7714C39.7221 16.79 39.7657 16.7996 39.8098 16.7997H41.9286C42.0911 16.7997 42.2292 16.6811 42.2547 16.5202L43.5435 8.32507C43.5504 8.28136 43.5478 8.23667 43.5358 8.19407C43.5238 8.15147 43.5028 8.11198 43.4742 8.0783C43.4455 8.04463 43.41 8.01758 43.3699 7.99901C43.3298 7.98043 43.2862 7.97079 43.2421 7.97072H41.1233C40.9607 7.97072 40.8224 8.08931 40.7972 8.25022L40.7279 8.69134C40.7279 8.69134 39.8028 7.67789 38.1118 7.68421ZM38.1811 10.2727C38.4244 10.2727 38.647 10.3064 38.8466 10.3707C39.7608 10.6649 40.2791 11.5455 40.1291 12.5C39.9442 13.6753 38.9829 14.5407 37.75 14.5407C37.507 14.5407 37.2844 14.5073 37.0845 14.443C36.1706 14.1487 35.649 13.2681 35.799 12.3136C35.984 11.1383 36.9483 10.2727 38.1811 10.2727Z" fill="#003087" style="fill:#003087;fill:color(display-p3 0.0000 0.1882 0.5294);fill-opacity:1;"/>
<path d="M55.7728 4.19922C55.6102 4.19922 55.4722 4.31757 55.4467 4.47872L53.5647 16.4458C53.5579 16.4895 53.5606 16.5342 53.5726 16.5768C53.5846 16.6193 53.6057 16.6588 53.6344 16.6924C53.6631 16.726 53.6987 16.753 53.7388 16.7716C53.7788 16.7901 53.8224 16.7997 53.8666 16.7997H56.0985C56.2608 16.7997 56.3992 16.6811 56.4246 16.5202L56.9774 13.0059C57.0026 12.845 57.141 12.7264 57.3035 12.7264H59.3327C61.7037 12.7264 63.7161 10.9919 64.0835 8.64152C64.4544 6.27127 62.6078 4.20436 59.9903 4.19922H55.7728ZM57.9425 6.87073H59.566C60.9026 6.87073 61.3379 7.66152 61.2003 8.53604C61.0627 9.41243 60.3869 10.058 59.0936 10.058H57.4412L57.9425 6.87073ZM68.6231 7.68421C68.0595 7.68631 67.411 7.80209 66.683 8.10615C65.013 8.80408 64.2111 10.2465 63.8705 11.2981C63.8705 11.2981 62.787 14.5064 65.236 16.269C65.236 16.269 67.5069 17.9659 70.064 16.1644L70.0199 16.4458C70.013 16.4895 70.0157 16.5342 70.0278 16.5768C70.0398 16.6193 70.0609 16.6588 70.0895 16.6924C70.1182 16.726 70.1538 16.753 70.1939 16.7716C70.234 16.7901 70.2776 16.7997 70.3217 16.7997H72.4403C72.6029 16.7997 72.741 16.6811 72.7664 16.5202L74.0556 8.32507C74.0626 8.28132 74.0599 8.23659 74.0479 8.19396C74.036 8.15132 74.0149 8.11181 73.9862 8.07813C73.9575 8.04444 73.9219 8.0174 73.8817 7.99886C73.8416 7.98032 73.798 7.97072 73.7538 7.97072H71.635C71.4724 7.97072 71.3341 8.08931 71.3089 8.25022L71.2396 8.69134C71.2396 8.69134 70.314 7.67789 68.6231 7.68421ZM68.6924 10.2727C68.9357 10.2727 69.1582 10.3064 69.3579 10.3707C70.2721 10.6649 70.7904 11.5455 70.6404 12.5C70.4554 13.6753 69.4941 14.5407 68.2613 14.5407C68.0182 14.5407 67.7957 14.5073 67.5958 14.443C66.6818 14.1487 66.1602 13.2681 66.3102 12.3136C66.4952 11.1383 67.4595 10.2727 68.6924 10.2727Z" fill="#0070E0" style="fill:#0070E0;fill:color(display-p3 0.0000 0.4392 0.8784);fill-opacity:1;"/>
<path d="M44.5489 7.97094C44.3809 7.97094 44.2615 8.13536 44.3128 8.29558L46.6357 15.5231L44.5353 18.929C44.4334 19.0944 44.5519 19.3079 44.7457 19.3079H47.2282C47.2992 19.3078 47.369 19.2894 47.4308 19.2544C47.4926 19.2194 47.5444 19.1691 47.5811 19.1082L54.0685 8.3475C54.1681 8.18214 54.0492 7.9707 53.8565 7.9707H51.3743C51.3026 7.97076 51.2322 7.98954 51.1699 8.02518C51.1077 8.06081 51.0557 8.11209 51.0192 8.17395L48.4657 12.4967L47.1694 8.206C47.1272 8.06636 46.9986 7.9707 46.8533 7.9707L44.5489 7.97094Z" fill="#003087" style="fill:#003087;fill:color(display-p3 0.0000 0.1882 0.5294);fill-opacity:1;"/>
<path d="M76.4631 4.19922C76.3007 4.19922 76.1624 4.3178 76.137 4.47872L74.2545 16.4453C74.2476 16.4891 74.2502 16.5338 74.2622 16.5764C74.2742 16.6191 74.2953 16.6586 74.324 16.6923C74.3527 16.7259 74.3883 16.753 74.4284 16.7715C74.4685 16.7901 74.5122 16.7997 74.5563 16.7997H76.7882C76.9506 16.7997 77.0889 16.6811 77.1144 16.5202L78.9964 4.5531C79.0032 4.50942 79.0005 4.46478 78.9885 4.42224C78.9765 4.3797 78.9555 4.34027 78.9268 4.30665C78.8982 4.27303 78.8627 4.24602 78.8226 4.22747C78.7826 4.20893 78.7391 4.19929 78.695 4.19922H76.4631Z" fill="#0070E0" style="fill:#0070E0;fill:color(display-p3 0.0000 0.4392 0.8784);fill-opacity:1;"/>
<path d="M6.65454 4.19922C6.51077 4.19934 6.37175 4.25086 6.26247 4.34453C6.15318 4.43821 6.08078 4.56789 6.0583 4.71027L5.06763 11.0104C5.11381 10.7161 5.36667 10.4993 5.66385 10.4993H8.56687C11.4885 10.4993 13.9677 8.36226 14.4207 5.46621C14.4544 5.25 14.4735 5.03175 14.4779 4.81295C13.7354 4.42259 12.8632 4.19922 11.9075 4.19922H6.65454Z" fill="#001C64" style="fill:#001C64;fill:color(display-p3 0.0000 0.1098 0.3922);fill-opacity:1;"/>
<path d="M14.4779 4.8125C14.4735 5.0313 14.4544 5.24955 14.4207 5.46576C13.9677 8.36181 11.4883 10.4989 8.56689 10.4989H5.66388C5.36693 10.4989 5.11384 10.7155 5.06765 11.0099L4.15673 16.7992L3.58617 20.4311C3.57503 20.5013 3.5792 20.573 3.59841 20.6414C3.61762 20.7098 3.6514 20.7732 3.69742 20.8272C3.74343 20.8813 3.80059 20.9246 3.86495 20.9544C3.92931 20.9841 3.99934 20.9995 4.0702 20.9994H7.22118C7.36495 20.9993 7.50396 20.9478 7.61325 20.8541C7.72253 20.7605 7.79492 20.6308 7.8174 20.4884L8.64736 15.2102C8.66986 15.0677 8.74232 14.938 8.8517 14.8443C8.96108 14.7506 9.10022 14.6991 9.24407 14.6991H11.0992C14.0209 14.6991 16.5001 12.562 16.9531 9.66599C17.2748 7.61055 16.2423 5.74011 14.4779 4.8125Z" fill="#0070E0" style="fill:#0070E0;fill:color(display-p3 0.0000 0.4392 0.8784);fill-opacity:1;"/>
<path d="M3.07471 0C2.77776 0 2.52467 0.216584 2.47849 0.510586L0.00584139 16.2319C-0.0410454 16.5303 0.188963 16.8002 0.490344 16.8002H4.15707L5.06752 11.0109L6.0582 4.71081C6.08068 4.56843 6.15308 4.43875 6.26236 4.34508C6.37165 4.2514 6.51066 4.19988 6.65443 4.19976H11.9074C12.8633 4.19976 13.7353 4.42336 14.4778 4.81349C14.5286 2.17683 12.3588 0 9.37549 0H3.07471Z" fill="#003087" style="fill:#003087;fill:color(display-p3 0.0000 0.1882 0.5294);fill-opacity:1;"/>
</g>
<defs>
<clipPath id="clip0_1882_6509">
<rect width="79" height="21" fill="white" style="fill:white;fill-opacity:1;"/>
</clipPath>
</defs>
</svg>
