<svg width="59" height="21" viewBox="0 0 59 21" fill="none" xmlns="http://www.w3.org/2000/svg">
<g clip-path="url(#clip0_1882_6490)">
<path d="M25.5665 20.2121H20.7871L23.7765 0.851562H28.5556L25.5665 20.2121Z" fill="#00579F" style="fill:#00579F;fill:color(display-p3 0.0000 0.3412 0.6235);fill-opacity:1;"/>
<path d="M42.8924 1.32425C41.9496 0.932522 40.4544 0.5 38.6056 0.5C33.8858 0.5 30.5621 3.13619 30.5417 6.90515C30.5025 9.68588 32.9214 11.2304 34.7305 12.1575C36.5796 13.105 37.2081 13.7234 37.2081 14.5679C37.1893 15.8649 35.714 16.4628 34.3379 16.4628C32.4298 16.4628 31.4073 16.1545 29.8536 15.4329L29.2242 15.1236L28.5554 19.4696C29.6764 20.0045 31.7416 20.4792 33.8858 20.5C38.9007 20.5 42.1655 17.9046 42.2042 13.8882C42.2233 11.6842 40.946 9.99549 38.1924 8.61552C36.5208 7.72968 35.497 7.13236 35.497 6.22598C35.5166 5.402 36.3629 4.55804 38.2499 4.55804C39.8036 4.5167 40.9453 4.90789 41.8101 5.29934L42.2424 5.50493L42.8924 1.32425Z" fill="#00579F" style="fill:#00579F;fill:color(display-p3 0.0000 0.3412 0.6235);fill-opacity:1;"/>
<path d="M49.2446 13.3533C49.6382 12.2411 51.1528 7.93643 51.1528 7.93643C51.1329 7.97776 51.5456 6.80366 51.7816 6.08288L52.1156 7.7511C52.1156 7.7511 53.0207 12.3854 53.2172 13.3533C52.4703 13.3533 50.1887 13.3533 49.2446 13.3533ZM55.1442 0.851562H51.4473C50.3073 0.851562 49.4412 1.20141 48.9493 2.45791L41.8501 20.2118H46.865C46.865 20.2118 47.6906 17.8223 47.8681 17.3076C48.4182 17.3076 53.2967 17.3076 54.0044 17.3076C54.1417 17.9873 54.5747 20.2118 54.5747 20.2118H59L55.1442 0.851562Z" fill="#00579F" style="fill:#00579F;fill:color(display-p3 0.0000 0.3412 0.6235);fill-opacity:1;"/>
<path d="M16.7953 0.851562L12.1147 14.0536L11.6032 11.3761C10.7379 8.28655 8.02395 4.92986 4.99536 3.26082L9.28264 20.1916H14.3367L21.8491 0.851562H16.7953Z" fill="#00579F" style="fill:#00579F;fill:color(display-p3 0.0000 0.3412 0.6235);fill-opacity:1;"/>
<path d="M7.76828 0.851562H0.0786678L0 1.24275C5.99838 2.84937 9.97098 6.72208 11.6032 11.3769L9.93152 2.47899C9.65631 1.24247 8.81056 0.892351 7.76828 0.851562Z" fill="#FAA61A" style="fill:#FAA61A;fill:color(display-p3 0.9804 0.6510 0.1020);fill-opacity:1;"/>
</g>
<defs>
<clipPath id="clip0_1882_6490">
<rect width="59" height="20" fill="white" style="fill:white;fill-opacity:1;" transform="translate(0 0.5)"/>
</clipPath>
</defs>
</svg>
