<svg width="56" height="56" viewBox="0 0 56 56" fill="none" xmlns="http://www.w3.org/2000/svg">
<path d="M49.0309 27.0262C49.0348 27.0262 49.0376 27.0262 49.0415 27.0262C49.3095 27.0262 49.565 26.9138 49.7465 26.7169C49.931 26.5171 50.0222 26.2491 49.9982 25.9782C49.0338 15.3706 40.6355 6.96943 30.027 6.0031C29.758 5.98196 29.4871 6.06938 29.2873 6.25477C29.0875 6.4392 28.9761 6.69951 28.979 6.97135C29.1461 21.0687 31.0058 26.8293 49.0309 27.0262ZM49.0309 28.9742C31.0058 29.1711 29.1471 34.9317 28.9799 49.0291C28.977 49.3009 29.0885 49.5612 29.2883 49.7457C29.4669 49.9099 29.7004 50.0012 29.9405 50.0012C29.9693 50.0012 29.9991 50.0002 30.0279 49.9973C40.6365 49.031 49.0348 40.6308 49.9982 30.0222C50.0222 29.7513 49.9319 29.4833 49.7465 29.2835C49.5612 29.0837 49.3028 28.9848 49.0309 28.9742ZM25.909 6.0079C15.334 7.00209 6.96264 15.4013 6.00303 25.9801C5.97901 26.251 6.06931 26.519 6.2547 26.7188C6.43625 26.9157 6.69272 27.0271 6.95976 27.0271C6.9636 27.0271 6.96744 27.0271 6.97129 27.0271C24.9369 26.8206 26.7917 21.063 26.9608 6.9752C26.9637 6.70335 26.8513 6.44208 26.6515 6.25765C26.4498 6.07322 26.1799 5.98292 25.909 6.0079ZM6.97033 28.9733C6.67159 28.9396 6.43721 29.0818 6.25374 29.2816C6.06931 29.4814 5.97805 29.7494 6.00207 30.0203C6.96168 40.5991 15.334 48.9983 25.909 49.9925C25.9388 49.9954 25.9695 49.9964 25.9993 49.9964C26.2394 49.9964 26.4719 49.9061 26.6505 49.7418C26.8503 49.5574 26.9627 49.2961 26.9598 49.0243C26.7908 34.9375 24.9369 29.1798 6.97033 28.9733Z" fill="black" style="fill:black;fill-opacity:1;"/>
</svg>
