<svg width="22" height="20" viewBox="0 0 22 20" fill="none" xmlns="http://www.w3.org/2000/svg">
<path fill-rule="evenodd" clip-rule="evenodd" d="M12.5 2.25H9.5C9.08579 2.25 8.75 2.58579 8.75 3V4.5H13.25V3C13.25 2.58579 12.9142 2.25 12.5 2.25ZM6.5 3V4.5H5C2.51472 4.5 0.5 6.51472 0.5 9V15C0.5 17.4853 2.51472 19.5 5 19.5H17C19.4853 19.5 21.5 17.4853 21.5 15V9C21.5 6.51472 19.4853 4.5 17 4.5H15.5V3C15.5 1.34315 14.1569 0 12.5 0H9.5C7.84315 0 6.5 1.34315 6.5 3ZM13.25 6.75H15.5H17C18.2426 6.75 19.25 7.75736 19.25 9V15C19.25 16.2426 18.2426 17.25 17 17.25H5C3.75736 17.25 2.75 16.2426 2.75 15V9C2.75 7.75736 3.75736 6.75 5 6.75H6.5H8.75H13.25ZM6.125 9C5.50368 9 5 9.50368 5 10.125C5 10.7463 5.50368 11.25 6.125 11.25H15.875C16.4963 11.25 17 10.7463 17 10.125C17 9.50368 16.4963 9 15.875 9H6.125Z" fill="#BABABA"/>
</svg>
