<svg width="94" height="60" viewBox="0 0 94 60" fill="none" xmlns="http://www.w3.org/2000/svg">
<path d="M13.7188 31.2036C13.7188 31.2036 12.393 40.6612 14.4465 46.0806C16.4999 51.5 20.4762 59.177 41.6648 59.177C62.8534 59.177 67.5128 50.6612 69.7473 46.0806C71.9819 41.5 71.9819 29.2266 71.9819 29.2266L13.7188 31.2036Z" fill="#B6DDA5" style="fill:#B6DDA5;fill:color(display-p3 0.7137 0.8667 0.6471);fill-opacity:1;"/>
<path d="M0.808608 24.6488C1.00001 28.4996 31.4582 47.7731 39.9791 47.8865C48.5 48 85.2855 27.5 85.2855 23.4031C85.2855 19.3061 50 1.49961 43.6439 0.823833C37.2878 0.148052 0.617202 20.798 0.808608 24.6488Z" fill="#B6DDA5" style="fill:#B6DDA5;fill:color(display-p3 0.7137 0.8667 0.6471);fill-opacity:1;"/>
<path d="M43.0001 21C43.0001 21 58.5 21 75.3456 31.3114" stroke="black" style="stroke:black;stroke-opacity:1;" stroke-width="2" stroke-linecap="round" stroke-linejoin="round"/>
<path d="M86.3306 34.9915C89.5107 38.2771 88.2305 40.959 85.8031 43.3863C83.3757 45.8136 80.7129 47.0723 77.5304 43.7808C74.3502 40.4952 71.8506 33.9084 74.278 31.4811C76.7054 29.0538 83.1481 31.7 86.3282 34.9856L86.3306 34.9915Z" fill="#FB812C" style="fill:#FB812C;fill:color(display-p3 0.9843 0.5059 0.1725);fill-opacity:1;"/>
</svg>
