<svg width="74" height="59" viewBox="0 0 74 59" fill="none" xmlns="http://www.w3.org/2000/svg">
<g clip-path="url(#clip0_1244_12895)">
<path d="M39.9229 56.4177C32.3222 58.7716 24.9352 58.8757 18.5559 56.7211C12.0758 54.5318 6.98173 50.0886 4.21113 44.2111C-1.34732 32.4219 3.0995 15.6962 25.5583 4.91021C28.2434 3.62082 30.9309 2.55464 33.5476 1.74424C41.3886 -0.684111 48.8762 -0.904954 55.2017 1.10821C61.7409 3.18694 66.8944 7.62821 69.7128 13.6062C73.0298 20.6451 72.7016 28.3387 68.7888 35.2683C65.1046 41.7945 58.3176 47.6907 48.6143 52.784C45.7263 54.3009 42.8034 55.5223 39.9219 56.4147L39.9229 56.4177Z" fill="#B6DDA5" style="fill:#B6DDA5;fill:color(display-p3 0.7137 0.8667 0.6471);fill-opacity:1;"/>
<path d="M37.1339 36.5769C39.5626 29.1274 35.9171 21.3025 28.9914 19.0996C22.0657 16.8966 14.4825 21.1498 12.0538 28.5994C9.6251 36.0489 13.2706 43.8737 20.1963 46.0767C27.122 48.2796 34.7052 44.0264 37.1339 36.5769Z" fill="white" style="fill:white;fill-opacity:1;"/>
<path d="M65.5089 45.8308C67.9376 38.3813 64.2921 30.5564 57.3664 28.3535C50.4407 26.1506 42.8575 30.4037 40.4288 37.8533C38.0001 45.3028 41.6456 53.1276 48.5713 55.3306C55.497 57.5335 63.0802 53.2803 65.5089 45.8308Z" fill="white" style="fill:white;fill-opacity:1;"/>
<path d="M25.5 41C29.0898 41 32 38.0899 32 34.5C32 30.9101 29.0898 28 25.5 28C21.9101 28 19 30.9101 19 34.5C19 38.0899 21.9101 41 25.5 41Z" fill="black" style="fill:black;fill-opacity:1;"/>
<path d="M54 51C57.866 51 61 47.866 61 44C61 40.134 57.866 37 54 37C50.134 37 47 40.134 47 44C47 47.866 50.134 51 54 51Z" fill="black" style="fill:black;fill-opacity:1;"/>
</g>
<defs>
<clipPath id="clip0_1244_12895">
<rect width="74" height="59" fill="white" style="fill:white;fill-opacity:1;"/>
</clipPath>
</defs>
</svg>
