<svg width="84" height="70" viewBox="0 0 84 70" fill="none" xmlns="http://www.w3.org/2000/svg">
<path d="M33.5 21.5009C33.5 0.50028 74.9875 -15.6696 53.3122 29.5007C53.3122 29.5007 81.0773 16.2841 82.9219 31.7178C84.7666 47.1515 53.3122 46.0206 53.3122 46.0206C53.3122 46.0206 77 58.6801 61.2246 68.6058C50.4551 75.3818 40.8527 49.784 40.8527 49.784C40.8527 49.784 35.9963 79.1452 16.475 67.0994C-12 49.5289 23.9271 40.3239 23.9271 40.3239C23.9271 40.3239 -3.49999 29.5002 2.85939 16.2794C12.4544 0.0948515 33.5037 21.4962 33.5037 21.4962L33.5 21.5009Z" fill="#FF6900" style="fill:#FF6900;fill:color(display-p3 1.0000 0.4106 0.0000);fill-opacity:1;"/>
</svg>
