<svg width="24" height="21" viewBox="0 0 24 21" fill="none" xmlns="http://www.w3.org/2000/svg">
<path fill-rule="evenodd" clip-rule="evenodd" d="M2.44935 2.69344C3.59255 1.43858 5.2233 0.749268 7.14 0.749268C8.88584 0.749268 10.7501 1.57443 11.9986 3.18739C13.2422 1.57527 15.0993 0.749268 16.86 0.749268C18.7705 0.749268 20.4008 1.43507 21.5455 2.68793C22.6798 3.92934 23.25 5.63035 23.25 7.51949C23.25 10.7675 21.5808 13.3816 19.4677 15.414C17.3592 17.442 14.7118 18.9879 12.517 20.1235C12.1912 20.292 11.8037 20.2912 11.4787 20.1212C9.28382 18.9735 6.63562 17.4391 4.52864 15.4209C2.41417 13.3956 0.75 10.7889 0.75 7.51949C0.75 5.63686 1.31707 3.93632 2.44935 2.69344ZM4.11262 4.20871C3.43008 4.95791 3 6.07998 3 7.51949C3 9.95485 4.22409 12.0136 6.085 13.7961C7.80462 15.4432 9.98667 16.7734 12.0023 17.8528C14.0059 16.7872 16.1874 15.4472 17.9079 13.7924C19.7738 11.9978 21 9.93071 21 7.51949C21 6.075 20.5677 4.9534 19.8845 4.20561C19.2117 3.46926 18.2095 2.99927 16.86 2.99927C15.3962 2.99927 13.7202 3.94032 13.0688 5.92235C12.917 6.38404 12.486 6.6961 12 6.6961C11.514 6.6961 11.083 6.38404 10.9312 5.92235C10.2805 3.94245 8.58783 2.99927 7.14 2.99927C5.786 2.99927 4.78424 3.47149 4.11262 4.20871Z" fill="#BABABA"/>
</svg>
