<svg width="22" height="21" viewBox="0 0 22 21" fill="none" xmlns="http://www.w3.org/2000/svg">
<path fill-rule="evenodd" clip-rule="evenodd" d="M11 18.75C12.8725 18.75 14.5994 18.1262 15.984 17.075L13.831 14.922C13.0142 15.4461 12.0426 15.75 11 15.75C9.95742 15.75 8.98582 15.4461 8.16895 14.922L6.01604 17.075C7.40065 18.1262 9.12747 18.75 11 18.75ZM6.57796 13.3311C6.0539 12.5142 5.75 11.5426 5.75 10.5C5.75 9.45742 6.0539 8.48582 6.57796 7.66895L4.42504 5.51603C3.37385 6.90065 2.75 8.62747 2.75 10.5C2.75 12.3725 3.37385 14.0994 4.42504 15.484L6.57796 13.3311ZM8.16895 6.07796L6.01603 3.92504C7.40065 2.87385 9.12747 2.25 11 2.25C12.8725 2.25 14.5994 2.87385 15.984 3.92504L13.8311 6.07796C13.0142 5.5539 12.0426 5.25 11 5.25C9.95742 5.25 8.98582 5.5539 8.16895 6.07796ZM15.422 7.66895C15.9461 8.48582 16.25 9.45742 16.25 10.5C16.25 11.5426 15.9461 12.5142 15.422 13.331L17.575 15.484C18.6262 14.0994 19.25 12.3725 19.25 10.5C19.25 8.62747 18.6262 6.90065 17.575 5.51604L15.422 7.66895ZM11 21C16.799 21 21.5 16.299 21.5 10.5C21.5 4.70101 16.799 0 11 0C5.20101 0 0.5 4.70101 0.5 10.5C0.5 16.299 5.20101 21 11 21ZM14 10.5C14 12.1569 12.6569 13.5 11 13.5C9.34315 13.5 8 12.1569 8 10.5C8 8.84315 9.34315 7.5 11 7.5C12.6569 7.5 14 8.84315 14 10.5Z" fill="#BABABA"/>
</svg>
