<svg width="32" height="32" viewBox="0 0 32 32" fill="none" xmlns="http://www.w3.org/2000/svg">
<path d="M13.1769 29.3225C13.354 27.255 13.5113 25.2748 13.6556 23.2772C13.0436 22.7068 10.6351 20.6982 9.67124 18.6569C7.75884 14.6092 3.82478 14.3906 4.1701 13.5382C4.26627 13.3022 4.48702 12.97 5.3547 13.0792C7.10317 13.2978 9.69965 14.9151 10.5564 16.1194C11.4131 17.3258 12.6546 19.0743 13.8982 19.7169C13.9397 19.0787 13.9768 18.4908 14.0118 17.9509C14.1381 15.9095 14.2222 5.04376 14.3381 1.61593C14.3514 1.22308 14.0224 0.902629 13.6309 0.938153C4.19397 1.79451 0 8.46662 0 16.5762C0 23.8161 3.62023 29.9108 10.9131 31.7449C11.7967 31.9672 12.7268 31.5291 12.9555 30.6472C13.0585 30.2498 13.1345 29.8097 13.1769 29.3225ZM9.21008 9.45553C9.39585 9.36811 10.6832 9.21949 11.6383 11.2608C12.4207 12.9328 11.6536 14.1961 11.4678 14.2835C11.282 14.3709 9.9947 14.5195 9.0396 12.4782C8.08449 10.4347 9.0243 9.54296 9.21008 9.45553ZM7.91184 19.8349C7.82004 20.0185 6.8999 20.9321 4.88698 19.918C2.87186 18.9038 3.05983 17.6209 3.15162 17.4395C3.24342 17.2559 4.16355 16.3423 6.17648 17.3564C7.82441 18.1848 8.00363 19.6535 7.91184 19.8349Z" fill="#FB812C" style="fill:#FB812C;fill:color(display-p3 0.9843 0.5059 0.1725);fill-opacity:1;"/>
<path fill-rule="evenodd" clip-rule="evenodd" d="M17.2643 0.887745C16.8948 0.866261 16.5841 1.16377 16.5857 1.53393C16.6141 8.47028 17.0653 16.2892 17.205 18.8798C17.8235 18.4449 18.5229 16.7598 19.0299 15.7216C20.2145 13.2978 23.1498 12.4891 23.5191 12.9503C24.1486 13.7349 22.1816 13.5164 20.8811 16.3882C20.7194 16.7467 20.6516 17.1947 20.5205 17.6734C20.2298 18.7377 19.6069 19.8568 18.984 20.7944C19.1676 20.7157 19.3447 20.6283 19.5108 20.5496C19.9632 20.3288 21.8515 18.8448 22.1641 18.8448C22.2799 18.8448 22.3848 18.8689 22.4788 18.9148C22.693 19.0219 22.8219 19.2164 22.8372 19.4481C22.8853 20.2218 19.9632 22.4707 19.9042 22.5101C19.3643 22.8707 18.0595 23.4062 17.4694 23.6422C17.5831 25.5633 17.7077 27.4276 17.8432 29.3291C17.884 29.8887 17.9707 30.3868 18.0938 30.83C18.3257 31.6652 19.2039 32.0855 20.0546 31.9189C28.1985 30.3244 31.4703 24.0609 31.4703 16.5762C31.4703 8.28154 27.6336 1.4906 17.2643 0.887745ZM19.172 10.1331C19.1654 12.3864 20.3937 12.8017 20.5992 12.8017C20.8046 12.8039 22.0351 11.9864 22.0417 10.1418C22.0482 7.88846 20.8199 7.47539 20.6145 7.4732C20.409 7.47102 19.1786 7.87754 19.172 10.1331ZM22.4919 17.2166C22.5662 17.4089 23.3902 18.4077 25.4949 17.5969C27.5974 16.786 27.5384 15.4921 27.4641 15.2998C27.3898 15.1075 26.1834 14.2551 24.4611 14.9195C22.3586 15.7304 22.4176 17.0242 22.4919 17.2166Z" fill="#FB812C" style="fill:#FB812C;fill:color(display-p3 0.9843 0.5059 0.1725);fill-opacity:1;"/>
</svg>
