<svg width="57" height="56" viewBox="0 0 57 56" fill="none" xmlns="http://www.w3.org/2000/svg">
<path d="M49.5 35C49.5 36.2377 49.0083 37.4247 48.1332 38.2998C47.258 39.175 46.071 39.6667 44.8333 39.6667H16.8333L7.5 49V11.6667C7.5 10.429 7.99167 9.242 8.86683 8.36683C9.742 7.49167 10.929 7 12.1667 7H44.8333C46.071 7 47.258 7.49167 48.1332 8.36683C49.0083 9.242 49.5 10.429 49.5 11.6667V35Z" fill="#FB812C" style="fill:#FB812C;fill:color(display-p3 0.9843 0.5059 0.1725);fill-opacity:1;"/>
<path d="M35.0331 17.4991C34.2281 16.6955 33.1372 16.2441 31.9997 16.2441C30.8623 16.2441 29.7713 16.6955 28.9664 17.4991L28.4997 18.1991L27.7997 17.4991C27.3707 17.1314 26.8735 16.8518 26.3365 16.6763C25.7994 16.5007 25.2331 16.4327 24.6697 16.476C24.1064 16.5193 23.5571 16.6732 23.0532 16.9288C22.5494 17.1844 22.1008 17.5368 21.7331 17.9658C21.3654 18.3948 21.0857 18.892 20.9102 19.429C20.7347 19.9661 20.6666 20.5324 20.7099 21.0958C20.7533 21.6591 20.9071 22.2084 21.1628 22.7123C21.4184 23.2162 21.7707 23.6648 22.1997 24.0325L28.4997 30.3325L34.7997 24.0325C36.8997 21.9325 36.6664 19.1325 35.0331 17.4991Z" fill="#F7F7F7" style="fill:#F7F7F7;fill:color(display-p3 0.9700 0.9700 0.9700);fill-opacity:1;"/>
</svg>
