<svg width="23" height="23" viewBox="0 0 23 23" fill="none" xmlns="http://www.w3.org/2000/svg">
<path fill-rule="evenodd" clip-rule="evenodd" d="M19.591 12.227L12.2869 19.5311C11.7048 20.1132 10.7624 20.1174 10.1752 19.5406L3.5009 12.9856C2.91003 12.4053 2.90128 11.4559 3.48133 10.8648L10.783 3.42409C11.2061 2.99292 11.7848 2.75 12.3889 2.75H18.75C19.5784 2.75 20.25 3.42157 20.25 4.25V10.636C20.25 11.2328 20.0129 11.8051 19.591 12.227ZM9.17702 1.84818C10.0232 0.985836 11.1807 0.5 12.3889 0.5H18.75C20.8211 0.5 22.5 2.17893 22.5 4.25V10.636C22.5 11.8295 22.0259 12.9741 21.182 13.818L13.8779 21.1221C12.4227 22.5773 10.0668 22.5879 8.59857 21.1459L1.9243 14.5908C0.447147 13.14 0.425258 10.7666 1.87541 9.28887L9.17702 1.84818ZM15.75 8.75C14.7145 8.75 13.875 7.91053 13.875 6.875C13.875 5.83946 14.7145 5 15.75 5C16.7855 5 17.625 5.83946 17.625 6.875C17.625 7.91053 16.7855 8.75 15.75 8.75Z" fill="#939393"/>
</svg>
