<svg width="22" height="21" viewBox="0 0 22 21" fill="none" xmlns="http://www.w3.org/2000/svg">
<path fill-rule="evenodd" clip-rule="evenodd" d="M19.25 10.5C19.25 15.0563 15.5563 18.75 11 18.75C6.44365 18.75 2.75 15.0563 2.75 10.5C2.75 5.94365 6.44365 2.25 11 2.25C15.5563 2.25 19.25 5.94365 19.25 10.5ZM21.5 10.5C21.5 16.299 16.799 21 11 21C5.20101 21 0.5 16.299 0.5 10.5C0.5 4.70101 5.20101 0 11 0C16.799 0 21.5 4.70101 21.5 10.5ZM12.9938 14.7531C13.2716 15.3088 13.9474 15.5341 14.5031 15.2562C15.0588 14.9784 15.2841 14.3026 15.0062 13.7469C14.3998 12.534 12.8263 11.625 11 11.625C9.17365 11.625 7.6002 12.534 6.99377 13.7469C6.7159 14.3026 6.94116 14.9784 7.49688 15.2562C8.05261 15.5341 8.72837 15.3088 9.00623 14.7531C9.1498 14.466 9.82635 13.875 11 13.875C12.1736 13.875 12.8502 14.466 12.9938 14.7531ZM14 10.5C13.3787 10.5 12.875 9.99632 12.875 9.375V7.875C12.875 7.25368 13.3787 6.75 14 6.75C14.6213 6.75 15.125 7.25368 15.125 7.875V9.375C15.125 9.99632 14.6213 10.5 14 10.5ZM6.875 9.375C6.875 9.99632 7.37868 10.5 8 10.5C8.62132 10.5 9.125 9.99632 9.125 9.375V7.875C9.125 7.25368 8.62132 6.75 8 6.75C7.37868 6.75 6.875 7.25368 6.875 7.875V9.375Z" fill="#BABABA"/>
</svg>
