<svg width="32" height="25" viewBox="0 0 32 25" fill="none" xmlns="http://www.w3.org/2000/svg">
<path d="M23 12C25.7614 12 28 9.76142 28 7C28 4.23857 25.7614 2 23 2C20.2386 2 18 4.23857 18 7C18 9.76142 20.2386 12 23 12Z" fill="#DDDDDD" style="fill:#DDDDDD;fill:color(display-p3 0.8676 0.8676 0.8676);fill-opacity:1;"/>
<path fill-rule="evenodd" clip-rule="evenodd" d="M23 13C18.05 13 14 16.0769 14 19.1538C14 21.278 15.722 23 17.8461 23H28.1538C30.278 23 32 21.278 32 19.1538C32 16.0769 27.95 13 23 13ZM17 19.1538C17 18.9486 17.1923 18.2097 18.3762 17.3723C19.4851 16.5879 21.126 16 23 16C24.874 16 26.5149 16.5879 27.6238 17.3723C28.8077 18.2097 29 18.9486 29 19.1538C29 19.6212 28.6212 20 28.1538 20H17.8461C17.3788 20 17 19.6212 17 19.1538Z" fill="#DDDDDD" style="fill:#DDDDDD;fill:color(display-p3 0.8676 0.8676 0.8676);fill-opacity:1;"/>
<path d="M11 13C4.95 13 0 16.6923 0 20.3846C0 22.9336 2.06638 25 4.61539 25H17.3846C19.9336 25 22 22.9336 22 20.3846C22 16.6923 17.05 13 11 13Z" fill="#DDDDDD" style="fill:#DDDDDD;fill:color(display-p3 0.8676 0.8676 0.8676);fill-opacity:1;"/>
<path d="M17 6C17 9.31371 14.3137 12 11 12C7.68629 12 5 9.31371 5 6C5 2.68629 7.68629 0 11 0C14.3137 0 17 2.68629 17 6Z" fill="#DDDDDD" style="fill:#DDDDDD;fill:color(display-p3 0.8676 0.8676 0.8676);fill-opacity:1;"/>
</svg>
