<svg width="56" height="56" viewBox="0 0 56 56" fill="none" xmlns="http://www.w3.org/2000/svg">
<path d="M29.8757 41C15.5259 41 7.34104 31.2402 7 15H14.188C14.4241 26.9199 19.7233 31.969 23.9207 33.01V15H30.6889V25.2803C34.8339 24.8378 39.1886 20.1532 40.6577 15H47.426C46.8724 17.6726 45.7689 20.2031 44.1845 22.4332C42.6001 24.6634 40.5689 26.5452 38.218 27.961C40.8422 29.2546 43.1601 31.0856 45.0186 33.3332C46.8772 35.5808 48.2341 38.1939 49 41H41.5497C40.8622 38.5627 39.4648 36.3809 37.5328 34.7281C35.6008 33.0753 33.2201 32.0249 30.6889 31.7087V41H29.8757Z" fill="#0077FF" style="fill:#0077FF;fill:color(display-p3 0.0000 0.4667 1.0000);fill-opacity:1;"/>
</svg>
