<svg width="56" height="56" viewBox="0 0 56 56" fill="none" xmlns="http://www.w3.org/2000/svg">
<path fill-rule="evenodd" clip-rule="evenodd" d="M11.3193 41.1727C10.5704 40.9561 9.88715 40.5707 9.3271 40.0491C8.76705 39.5274 8.34668 38.8849 8.10144 38.1756C6.70012 34.5098 6.28491 19.2023 8.98376 16.1804C9.88198 15.1974 11.1502 14.5921 12.513 14.4961C19.7532 13.753 42.1225 13.8521 44.6915 14.7438C45.4141 14.9675 46.0743 15.3445 46.6226 15.8464C47.1709 16.3482 47.5931 16.9621 47.8575 17.6418C49.3886 21.4315 49.4405 35.2033 47.6499 38.8444C47.1749 39.7922 46.3797 40.5599 45.3922 41.0241C42.6934 42.3121 14.9005 42.2873 11.3193 41.1727ZM22.8153 33.9896L35.7905 27.5496L22.8153 21.06V33.9896Z" fill="#F40000" style="fill:#F40000;fill:color(display-p3 0.9569 0.0000 0.0000);fill-opacity:1;"/>
</svg>
