<svg width="247" height="161" viewBox="0 0 247 161" fill="none" xmlns="http://www.w3.org/2000/svg">
<g clip-path="url(#clip0_218_16566)">
<path d="M82.1896 59.1028C76.2144 71.3626 66.4676 99.5858 75.2827 114.4" stroke="black" stroke-width="2.70035" stroke-linecap="round"/>
<path d="M132.969 67.2029C130.892 80.6822 122.815 109.428 107.129 116.577" stroke="black" stroke-width="2.70035" stroke-linecap="round"/>
<path d="M104.37 -94.2783C75.522 -97.8056 26.0111 -83.5432 24.2731 -69.3288C26.1775 -40.5054 38.5144 -25.9684 37.5553 -18.1237C33.5371 43.8098 61.2747 66.5562 105.2 70.4901C171.619 76.4384 184.193 19.3354 191.242 -24.5899C194.121 -42.5313 203.037 -65.5597 203.722 -71.1657C205.771 -87.9184 151.301 -96.4807 134.092 -98.5848C129.227 -99.1797 117.844 -84.6856 114.466 -85.0986C111.168 -85.5019 110.976 -93.4706 104.37 -94.2783Z" fill="#E14B4B"/>
<path d="M112.049 30.463C111.539 22.1929 117.578 15.0765 125.538 14.568C133.498 14.0595 140.364 20.3514 140.874 28.6215C141.383 36.8915 135.344 44.0079 127.385 44.5165C119.425 45.025 112.559 38.733 112.049 30.463Z" fill="white"/>
<path d="M74.1505 31.6446C73.6406 23.3746 79.6798 16.2582 87.6395 15.7496C95.5992 15.2411 102.465 21.5331 102.975 29.8031C103.485 38.0732 97.4458 45.1896 89.4861 45.6981C81.5264 46.2066 74.6604 39.9147 74.1505 31.6446Z" fill="white"/>
<path d="M87.2239 44.0415C83.106 43.6927 80.0904 40.2298 80.4884 36.3068C80.8864 32.3839 84.5472 29.4864 88.665 29.8352C92.7829 30.184 95.7985 33.647 95.4005 37.57C95.0025 41.4929 91.3417 44.3903 87.2239 44.0415Z" fill="black"/>
<path d="M124.298 42.9958C119.892 42.6226 116.665 38.9172 117.091 34.7196C117.517 30.522 121.434 27.4217 125.84 27.7949C130.246 28.1681 133.473 31.8735 133.047 36.0712C132.621 40.2688 128.704 43.3691 124.298 42.9958Z" fill="black"/>
<path d="M134.215 9.53027C131.876 7.82332 125.506 5.10674 118.741 7.89603" stroke="black" stroke-width="2.70035" stroke-linecap="round"/>
<path d="M81.127 11.835C83.1754 9.78841 89.0509 6.12403 96.1654 7.83895" stroke="black" stroke-width="2.70035" stroke-linecap="round"/>
<circle cx="104.322" cy="47.8647" r="3.60047" transform="rotate(-51.7579 104.322 47.8647)" fill="black"/>
</g>
<defs>
<clipPath id="clip0_218_16566">
<rect x="247" y="161" width="247" height="209" rx="13.1391" transform="rotate(180 247 161)" fill="white"/>
</clipPath>
</defs>
</svg>
