<svg width="248" height="158" viewBox="0 0 248 158" fill="none" xmlns="http://www.w3.org/2000/svg">
<g clip-path="url(#clip0_355_18280)">
<path d="M164.81 56.1028C170.786 68.3626 180.532 96.5858 171.717 111.4" stroke="black" stroke-width="2.70035" stroke-linecap="round"/>
<path d="M114.031 64.2029C116.108 77.6822 124.185 106.428 139.871 113.577" stroke="black" stroke-width="2.70035" stroke-linecap="round"/>
<path d="M142.63 -97.2783C171.478 -100.806 220.989 -86.5432 222.727 -72.3288C220.822 -43.5054 208.486 -28.9684 209.445 -21.1237C213.463 40.8098 185.725 63.5562 141.8 67.4901C75.3814 73.4384 62.8066 16.3354 55.7579 -27.5899C52.8788 -45.5313 43.9633 -68.5597 43.2778 -74.1657C41.2295 -90.9184 95.699 -99.4807 112.908 -101.585C117.773 -102.18 129.156 -87.6856 132.534 -88.0986C135.832 -88.5019 136.024 -96.4706 142.63 -97.2783Z" fill="#FB812C"/>
<path d="M135.497 26.2138C136.009 17.8646 129.946 10.6801 121.954 10.1667C113.962 9.6533 107.068 16.0055 106.556 24.3546C106.044 32.7038 112.108 39.8883 120.1 40.4017C128.091 40.9151 134.985 34.563 135.497 26.2138Z" fill="white"/>
<path d="M173.55 27.4067C174.062 19.0575 167.998 11.8729 160.006 11.3596C152.014 10.8462 145.121 17.1983 144.609 25.5475C144.097 33.8967 150.16 41.0812 158.152 41.5946C166.144 42.108 173.038 35.7558 173.55 27.4067Z" fill="white"/>
<path d="M160.423 39.9224C164.558 39.5703 167.586 36.0742 167.186 32.1137C166.787 28.1532 163.111 25.228 158.976 25.5802C154.842 25.9323 151.814 29.4284 152.214 33.3889C152.613 37.3494 156.289 40.2746 160.423 39.9224Z" fill="black"/>
<path d="M123.197 38.8663C127.621 38.4895 130.861 34.7486 130.434 30.5109C130.006 26.2731 126.073 23.1431 121.649 23.5199C117.225 23.8967 113.985 27.6376 114.413 31.8753C114.84 36.1131 118.773 39.2431 123.197 38.8663Z" fill="black"/>
<path d="M112.785 6.53027C115.124 4.82332 121.494 2.10674 128.259 4.89603" stroke="black" stroke-width="2.70035" stroke-linecap="round"/>
<path d="M150.992 52.1343C148.664 53.8553 142.311 56.6102 135.528 53.8618" stroke="black" stroke-width="2.70035" stroke-linecap="round"/>
<path d="M173 7.59717C170.719 5.81407 164.442 2.88909 157.588 5.45393" stroke="black" stroke-width="2.70035" stroke-linecap="round"/>
<circle cx="17.1437" cy="17.1437" r="17.1437" transform="matrix(-0.999958 -0.00917609 -0.00917609 0.999958 138.945 11.3145)" stroke="black" stroke-width="3" stroke-linejoin="round"/>
<ellipse cx="16.7243" cy="17.2311" rx="16.7243" ry="17.2311" transform="matrix(-0.999958 -0.00917609 -0.00917609 0.999958 179 11.5391)" stroke="black" stroke-width="3" stroke-linejoin="round"/>
<path d="M138.819 27.572C139.511 26.9093 141.63 25.992 144.576 27.6249" stroke="black" stroke-width="3" stroke-linecap="round"/>
<path d="M104.927 23.2581C99.9041 18.5215 86.8024 10.8471 74.5776 18.0422" stroke="black" stroke-width="3" stroke-linecap="round"/>
</g>
<defs>
<clipPath id="clip0_355_18280">
<rect width="248" height="211" rx="13.1391" transform="matrix(1 8.74228e-08 8.74228e-08 -1 0 158)" fill="white"/>
</clipPath>
</defs>
</svg>
