<svg width="251" height="168" viewBox="0 0 251 168" fill="none" xmlns="http://www.w3.org/2000/svg">
<g clip-path="url(#clip0_355_18291)">
<path d="M87.6687 102.05C81.7649 89.9367 72.1346 62.0508 80.8443 47.4133" stroke="black" stroke-width="2.70035" stroke-linecap="round"/>
<path d="M100.084 76.6358C97.1108 79.7971 91.6672 79.507 87.9258 75.9879C84.1844 72.4687 83.562 67.053 86.5356 63.8917L127.033 17.3179L140.645 30.1676L100.084 76.6358Z" fill="#BFBAAA"/>
<rect width="6.49454" height="4.96642" transform="matrix(0.652574 -0.757725 -0.757725 -0.652574 136.404 35.0874)" fill="#E6E3DA"/>
<ellipse cx="7.83166" cy="9.36056" rx="7.83166" ry="9.36056" transform="matrix(-0.685146 0.728406 0.728406 0.685146 132.268 11.7534)" fill="#BFBAAA"/>
<path d="M53.6249 7.10204L9.526 60.9419L90.2913 81.4181C93.1675 82.1473 96.2094 81.1969 98.1589 78.96L137.652 33.6455L53.6249 7.10204Z" fill="#E6E3DA"/>
<path d="M22.9398 75.5125C19.773 79.1896 13.7066 79.1568 9.38999 75.4392C5.07343 71.7217 4.14136 65.7271 7.30816 62.0501L50.2812 8.05469L65.9129 21.5171L22.9398 75.5125Z" fill="#F6F3EB"/>
<ellipse cx="7.1551" cy="5.00857" rx="7.1551" ry="5.00857" transform="matrix(0.857189 -0.515002 -0.515002 -0.857189 85.9922 76.3081)" fill="#E14B4B"/>
<ellipse cx="8.78674" cy="10.3149" rx="8.78674" ry="10.3149" transform="matrix(-0.652574 0.757725 0.757725 0.652574 55.8887 1.54639)" fill="#BFBAAA"/>
<path d="M89.1964 68.8131C89.5817 69.4271 89.191 70.3246 88.3238 70.8178C87.4566 71.3109 86.4413 71.2129 86.0561 70.5989C85.6708 69.9849 86.0615 69.0874 86.9287 68.5943C87.7959 68.1012 88.8112 68.1992 89.1964 68.8131Z" fill="white"/>
<path d="M93.4243 66.4094C93.8096 67.0234 93.4189 67.9209 92.5517 68.414C91.6845 68.9072 90.6692 68.8092 90.284 68.1952C89.8988 67.5812 90.2895 66.6837 91.1566 66.1906C92.0238 65.6974 93.0391 65.7954 93.4243 66.4094Z" fill="white"/>
<path d="M91.5766 66.4915C91.9812 66.3179 92.3965 66.42 92.504 66.7196C92.6116 67.0192 92.3707 67.4028 91.966 67.5765C91.5613 67.7501 91.1461 67.648 91.0385 67.3484C90.931 67.0488 91.1719 66.6651 91.5766 66.4915Z" fill="black"/>
<path d="M87.302 68.9254C87.7067 68.7517 88.1219 68.8538 88.2294 69.1534C88.337 69.453 88.0961 69.8367 87.6914 70.0103C87.2867 70.184 86.8715 70.0818 86.764 69.7822C86.6564 69.4826 86.8973 69.099 87.302 68.9254Z" fill="black"/>
<path fill-rule="evenodd" clip-rule="evenodd" d="M88.0908 67.5977C88.1538 67.6058 88.2268 67.5667 88.2539 67.5105C88.3206 67.372 88.6669 66.9683 89.4228 66.8667C89.491 66.8576 89.552 66.8047 89.5589 66.7487C89.5658 66.6926 89.5161 66.6546 89.4479 66.6638C88.5821 66.7801 88.1344 67.2556 88.0257 67.4813C87.9986 67.5375 88.0278 67.5896 88.0908 67.5977Z" fill="black"/>
<path d="M41.6356 62.576C41.6703 59.2924 71.4965 22.5975 76.1384 21.3505C80.8874 20.0508 105.217 30.5889 105.826 33.8306C106.435 37.0722 78.6213 69.5593 76.1066 70.4728C73.1986 70.8611 41.6009 65.8596 41.6356 62.576Z" fill="#BFBAAA"/>
<path d="M31.2245 64.7442L55.9456 34.3976" stroke="black" stroke-width="1.07326" stroke-linecap="round"/>
<path d="M97.7526 61.8042L117.923 37.9189" stroke="black" stroke-width="1.07326" stroke-linecap="round"/>
<path d="M94.2326 60.3914L107.874 43.8918" stroke="black" stroke-width="1.07326" stroke-linecap="round"/>
<path d="M137.842 94.0468C135.789 80.7286 127.809 52.3264 112.31 45.2628" stroke="black" stroke-width="2.70035" stroke-linecap="round"/>
<path d="M109.584 253.598C81.0809 257.083 32.1618 242.991 30.4446 228.947C32.3262 200.468 44.5156 186.104 43.568 178.354C39.5978 117.16 67.0039 94.6858 110.405 90.7989C176.029 84.9217 188.453 141.342 195.418 184.742C198.263 202.469 207.072 225.223 207.749 230.762C209.773 247.314 155.954 255.774 138.951 257.853C134.144 258.441 122.897 244.12 119.559 244.528C116.3 244.926 116.111 252.8 109.584 253.598Z" fill="#0075E2"/>
<path d="M119.163 110.372C118.794 106.57 115.414 103.787 111.612 104.155C107.81 104.524 105.026 107.904 105.395 111.706C105.763 115.508 108.953 116.325 112.755 115.957C116.557 115.588 119.531 114.174 119.163 110.372Z" fill="black"/>
<path d="M115.011 132.693C114.499 141.012 120.562 148.172 128.554 148.683C136.546 149.195 143.44 142.865 143.952 134.545C144.464 126.225 138.4 119.066 130.408 118.555C122.416 118.043 115.523 124.373 115.011 132.693Z" fill="white"/>
<path d="M76.9598 131.504C76.4478 139.824 82.5115 146.983 90.5034 147.495C98.4953 148.006 105.389 141.676 105.901 133.357C106.413 125.037 100.349 117.878 92.3575 117.366C84.3655 116.855 77.4718 123.184 76.9598 131.504Z" fill="white"/>
<path d="M90.0863 119.033C85.9518 119.384 82.924 122.867 83.3235 126.814C83.7231 130.76 87.3988 133.675 91.5333 133.324C95.6678 132.973 98.6956 129.49 98.296 125.543C97.8964 121.597 94.2208 118.682 90.0863 119.033Z" fill="black"/>
<path d="M127.312 120.084C122.888 120.46 119.649 124.187 120.076 128.41C120.504 132.633 124.437 135.752 128.861 135.377C133.285 135.001 136.524 131.273 136.097 127.051C135.669 122.828 131.736 119.709 127.312 120.084Z" fill="black"/>
<path d="M139.072 151.03C136.761 152.717 130.468 155.401 123.783 152.645" stroke="black" stroke-width="2.70035" stroke-linecap="round"/>
<path d="M77.2754 149C79.2994 151.022 85.1047 154.643 92.1341 152.948" stroke="black" stroke-width="2.70035" stroke-linecap="round"/>
</g>
<defs>
<clipPath id="clip0_355_18291">
<rect width="251" height="168" rx="13.1391" transform="matrix(-1 0 0 1 251 0)" fill="white"/>
</clipPath>
</defs>
</svg>
