<svg width="247" height="165" viewBox="0 0 247 165" fill="none" xmlns="http://www.w3.org/2000/svg">
<g clip-path="url(#clip0_218_16577)">
<path d="M164.81 101.897C170.786 89.6374 180.532 61.4142 171.717 46.5996" stroke="black" stroke-width="2.70035" stroke-linecap="round"/>
<path d="M190.644 74.6435C187.807 77.9279 182.356 77.8686 178.469 74.5111C174.582 71.1535 173.731 65.7691 176.568 62.4847L215.057 14.2373L229.201 26.4989L190.644 74.6435Z" fill="#BFBAAA"/>
<rect width="6.49454" height="4.96642" transform="matrix(0.619894 -0.784685 -0.784685 -0.619894 225.172 31.5938)" fill="#E6E3DA"/>
<ellipse cx="7.83166" cy="9.36056" rx="7.83166" ry="9.36056" transform="matrix(-0.653678 0.756772 0.756772 0.653678 220.051 8.45605)" fill="#BFBAAA"/>
<path d="M141.282 7.13983L99.5029 62.7993L181.063 79.8361C183.967 80.4429 186.966 79.3645 188.819 77.047L226.357 30.1004L141.282 7.13983Z" fill="#E6E3DA"/>
<path d="M113.523 76.7888C110.515 80.5967 104.452 80.8208 99.982 77.2895C95.5119 73.7581 94.3267 67.8084 97.335 64.0005L137.982 8.2334L154.17 21.0216L113.523 76.7888Z" fill="#F6F3EB"/>
<ellipse cx="7.1551" cy="5.00857" rx="7.1551" ry="5.00857" transform="matrix(0.834606 -0.550847 -0.550847 -0.834606 176.551 74.9131)" fill="#E14B4B"/>
<ellipse cx="8.78674" cy="10.3149" rx="8.78674" ry="10.3149" transform="matrix(-0.619894 0.784685 0.784685 0.619894 143.309 1.49316)" fill="#BFBAAA"/>
<path d="M179.437 67.2892C179.848 67.8863 179.495 68.7996 178.65 69.329C177.804 69.8584 176.786 69.8035 176.375 69.2064C175.964 68.6093 176.316 67.696 177.162 67.1666C178.007 66.6372 179.026 66.6921 179.437 67.2892Z" fill="white"/>
<path d="M183.559 64.7085C183.97 65.3057 183.617 66.2189 182.772 66.7483C181.926 67.2777 180.908 67.2229 180.497 66.6257C180.086 66.0286 180.438 65.1154 181.284 64.586C182.13 64.0565 183.148 64.1114 183.559 64.7085Z" fill="white"/>
<path d="M181.716 64.8688C182.113 64.6782 182.532 64.7626 182.653 65.0574C182.773 65.3522 182.548 65.7457 182.151 65.9363C181.754 66.1269 181.335 66.0425 181.215 65.7477C181.095 65.453 181.319 65.0595 181.716 64.8688Z" fill="black"/>
<path d="M177.549 67.4816C177.946 67.2909 178.365 67.3754 178.485 67.6701C178.605 67.9649 178.381 68.3584 177.984 68.549C177.587 68.7397 177.168 68.6552 177.047 68.3605C176.927 68.0657 177.152 67.6722 177.549 67.4816Z" fill="black"/>
<path fill-rule="evenodd" clip-rule="evenodd" d="M178.28 66.1217C178.344 66.1271 178.415 66.085 178.44 66.0276C178.501 65.8865 178.829 65.4685 179.58 65.335C179.648 65.3229 179.707 65.2675 179.711 65.2112C179.716 65.1549 179.665 65.1191 179.597 65.1311C178.737 65.284 178.31 65.778 178.211 66.0082C178.186 66.0655 178.217 66.1163 178.28 66.1217Z" fill="black"/>
<path d="M131.653 63.0717C131.549 59.7896 159.794 21.8642 164.379 20.4217C169.069 18.9221 193.823 28.4203 194.568 31.6332C195.314 34.8462 168.902 68.4821 166.428 69.5013C163.539 70.0124 131.758 66.3538 131.653 63.0717Z" fill="#BFBAAA"/>
<path d="M121.343 65.6789L144.757 34.3124" stroke="black" stroke-width="1.07326" stroke-linecap="round"/>
<path d="M187.686 59.9238L206.827 35.2055" stroke="black" stroke-width="1.07326" stroke-linecap="round"/>
<path d="M184.111 58.6615L197.041 41.5989" stroke="black" stroke-width="1.07326" stroke-linecap="round"/>
<path d="M114.031 93.7971C116.108 80.3178 124.185 51.572 139.871 44.423" stroke="black" stroke-width="2.70035" stroke-linecap="round"/>
<path d="M142.63 255.278C171.478 258.806 220.989 244.543 222.727 230.329C220.822 201.505 208.486 186.968 209.445 179.124C213.463 117.19 185.725 94.4438 141.8 90.5099C75.3814 84.5616 62.8065 141.665 55.7579 185.59C52.8788 203.531 43.9632 226.56 43.2778 232.166C41.2295 248.918 95.699 257.481 112.908 259.585C117.773 260.18 129.156 245.686 132.534 246.099C135.832 246.502 136.024 254.471 142.63 255.278Z" fill="#0075E2"/>
<path d="M145.445 112.33C144.586 110.815 141.494 108.383 135.999 110.771" stroke="black" stroke-width="1.79521" stroke-linecap="round"/>
<path d="M134.951 130.537C135.461 138.807 129.422 145.923 121.462 146.432C113.502 146.941 106.636 140.649 106.126 132.379C105.617 124.108 111.656 116.992 119.615 116.484C127.575 115.975 134.441 122.267 134.951 130.537Z" fill="white"/>
<path d="M172.849 129.355C173.359 137.625 167.32 144.742 159.36 145.25C151.401 145.759 144.535 139.467 144.025 131.197C143.515 122.927 149.554 115.81 157.514 115.302C165.474 114.793 172.34 121.085 172.849 129.355Z" fill="white"/>
<path d="M159.776 116.958C163.894 117.307 166.91 120.77 166.512 124.693C166.114 128.616 162.453 131.514 158.335 131.165C154.217 130.816 151.202 127.353 151.599 123.43C151.997 119.507 155.658 116.61 159.776 116.958Z" fill="black"/>
<path d="M122.702 118.004C127.108 118.377 130.335 122.083 129.909 126.28C129.483 130.478 125.566 133.578 121.16 133.205C116.754 132.832 113.527 129.126 113.953 124.929C114.379 120.731 118.296 117.631 122.702 118.004Z" fill="black"/>
<path d="M112.785 151.47C115.124 153.177 121.494 155.893 128.259 153.104" stroke="black" stroke-width="2.70035" stroke-linecap="round"/>
<path d="M165.875 149.165C163.827 151.212 157.951 154.876 150.837 153.161" stroke="black" stroke-width="2.70035" stroke-linecap="round"/>
</g>
<defs>
<clipPath id="clip0_218_16577">
<rect width="247" height="165" rx="13.1391" fill="white"/>
</clipPath>
</defs>
</svg>
