<svg width="223" height="181" viewBox="0 0 223 181" fill="none" xmlns="http://www.w3.org/2000/svg">
<path d="M130.968 180.904H156.406C214.981 180.904 222.051 183.883 222.051 156.67V104.772C222.051 102.933 228.283 0 139.274 0C65.2536 0 51.1978 61.4512 50.4718 109.329C39.9217 109.207 29.7095 109.292 25.4965 109.891C15.7961 111.27 12.0487 180.904 25.4964 180.904H88.1474H130.968Z" fill="#0075E2"/>
<path d="M125.57 34.3552C125.57 34.3552 133.278 31.5339 143.453 35.7666" stroke="black" stroke-width="1.89894" stroke-linecap="round" stroke-linejoin="round"/>
<path d="M120.373 57.7214C120.101 50.1829 125.492 43.8661 132.413 43.6125C139.334 43.3589 145.166 49.2644 145.438 56.803C145.709 64.3415 140.319 70.6582 133.397 70.9119C126.476 71.1655 120.645 65.26 120.373 57.7214Z" fill="white"/>
<path d="M84.2126 58.9544C83.9408 51.4158 89.3314 45.0991 96.2529 44.8454C103.174 44.5918 109.006 50.4974 109.277 58.0359C109.549 65.5744 104.159 71.8912 97.2371 72.1448C90.3157 72.3984 84.4844 66.4929 84.2126 58.9544Z" fill="white"/>
<path d="M93.1724 64.7755C90.1337 64.4131 87.9648 61.6621 88.3282 58.631C88.6915 55.5999 91.4494 53.4365 94.4881 53.7989C97.5269 54.1613 99.6957 56.9123 99.3324 59.9434C98.9691 62.9745 96.2111 65.1379 93.1724 64.7755Z" fill="black"/>
<path d="M129.706 63.5138C126.667 63.1514 124.498 60.4004 124.861 57.3693C125.225 54.3381 127.983 52.1747 131.021 52.5371C134.06 52.8996 136.229 55.6506 135.866 58.6817C135.502 61.7128 132.744 63.8762 129.706 63.5138Z" fill="black"/>
<circle cx="17.1054" cy="17.1054" r="17.1054" transform="matrix(-1 0 0 1 113.129 40.4302)" stroke="black" stroke-width="1.71951" stroke-linejoin="round"/>
<path d="M113.904 55.981C114.274 55.981 115.414 55.981 117.014 55.981" stroke="black" stroke-width="1.71951" stroke-linecap="round"/>
<path d="M179.029 72.1856C166.096 95.0966 159.573 96.4147 120.217 96.9296" stroke="black" stroke-width="1.89894" stroke-linecap="round"/>
<path d="M115.834 24.3826C105.172 15.7103 16.9889 17.253 8.65973 26.5924C-3.33426 37.266 -2.33473 106.436 11.9914 109.104C26.3176 111.773 107.994 109.104 123.496 109.104C136.262 109.104 151.588 110.98 155.606 107.644C159.032 103.485 156.861 97.7516 155.606 97.3045C150.922 95.6368 123.496 96.429 123.496 96.429C123.496 96.429 124.363 31.3204 115.834 24.3826Z" fill="#E6E3DA"/>
<path d="M55.7277 77.3358C55.8654 75.7282 55.9877 74.1886 56.0999 72.6354C55.6241 72.1919 53.7514 70.6302 53.002 69.043C51.5151 65.8958 48.4563 65.7259 48.7248 65.0632C48.7995 64.8796 48.9712 64.6213 49.6458 64.7063C51.0053 64.8762 53.0241 66.1337 53.6902 67.0701C54.3564 68.0081 55.3216 69.3676 56.2885 69.8672C56.3208 69.371 56.3497 68.9139 56.3769 68.4941C56.4764 66.8852 56.5422 58.2268 56.6343 55.6876C56.6433 55.4389 56.4343 55.2362 56.1863 55.2571C48.7746 55.8826 45.4824 61.0897 45.4824 67.4252C45.4824 73.1239 48.3672 77.9101 54.1789 79.2705C54.7405 79.402 55.3278 79.128 55.4962 78.5764C55.6067 78.2143 55.687 77.8029 55.7277 77.3358ZM52.6434 61.8888C52.7879 61.8208 53.7888 61.7053 54.5314 63.2925C55.1398 64.5924 54.5433 65.5747 54.3988 65.6426C54.2544 65.7106 53.2535 65.8262 52.5109 64.239C51.7683 62.6501 52.499 61.9568 52.6434 61.8888ZM51.634 69.959C51.5627 70.1017 50.8472 70.812 49.2821 70.0235C47.7153 69.235 47.8615 68.2375 47.9329 68.0965C48.0042 67.9537 48.7197 67.2434 50.2847 68.0319C51.566 68.676 51.7054 69.8179 51.634 69.959Z" fill="#FB812C"/>
<path fill-rule="evenodd" clip-rule="evenodd" d="M58.8085 55.2218C58.5745 55.2094 58.3769 55.3972 58.3777 55.6315C58.3959 61.0488 58.7503 67.1899 58.8596 69.2163C59.3405 68.8782 59.8843 67.568 60.2785 66.7608C61.1996 64.8762 63.4818 64.2475 63.769 64.606C64.2584 65.2161 62.729 65.0462 61.7179 67.2791C61.5921 67.5578 61.5395 67.9062 61.4375 68.2783C61.2115 69.1059 60.7272 69.9759 60.2429 70.705C60.3856 70.6438 60.5233 70.5758 60.6524 70.5146C61.0042 70.343 62.4724 69.1892 62.7154 69.1892C62.8055 69.1892 62.887 69.2078 62.9601 69.2435C63.1266 69.3268 63.2269 69.478 63.2388 69.6582C63.2762 70.2597 61.0042 72.0084 60.9583 72.0389C60.5385 72.3193 59.524 72.7357 59.0652 72.9192C59.1536 74.4129 59.2505 75.8624 59.3558 77.3409C59.3938 77.8611 59.4827 78.313 59.6101 78.7053C59.7795 79.2272 60.3329 79.4906 60.8728 79.3927C67.3531 78.2178 69.9512 73.3064 69.9512 67.4252C69.9512 60.9501 66.9441 55.6536 58.8085 55.2218ZM60.389 62.4156C60.3839 64.1676 61.3389 64.4905 61.4987 64.4905C61.6584 64.4922 62.6151 63.8566 62.6202 62.4224C62.6253 60.6704 61.6703 60.3492 61.5106 60.3475C61.3508 60.3458 60.3941 60.6619 60.389 62.4156ZM62.9703 67.9232C63.0281 68.0727 63.6687 68.8493 65.3052 68.2188C66.9399 67.5884 66.8941 66.5824 66.8363 66.4328C66.7785 66.2833 65.8405 65.6205 64.5014 66.1371C62.8666 66.7676 62.9125 67.7736 62.9703 67.9232Z" fill="#FB812C"/>
<path d="M87.9684 176.886C86.1542 171.443 84.6727 157.059 84.3617 143.064C83.973 125.57 82.1371 111.963 87.9684 110.019C93.7998 108.075 122.568 107.298 143.95 110.019" stroke="black" stroke-width="1.89894" stroke-linecap="round"/>
<path d="M85.9178 111.185C55.9833 107.686 26.0488 111.185 26.0488 111.185" stroke="black" stroke-width="1.89894" stroke-linecap="round"/>
</svg>
