<svg width="1280" height="275" viewBox="0 0 1280 275" fill="none" xmlns="http://www.w3.org/2000/svg">
<path fill-rule="evenodd" clip-rule="evenodd" d="M996 -1.2414e-05C982.745 -1.29934e-05 972 10.7451 972 24L972 122C972 126.418 968.418 130 964 130C959.582 130 956 126.418 956 122L956 25.8261C956 11.5628 944.437 -1.46679e-05 930.174 -1.52914e-05L673.826 -1.41638e-05C659.563 -1.41639e-05 648 11.5628 648 25.8262L648 122C648 126.418 644.418 130 640 130C635.582 130 632 126.418 632 122L632 25.8262C632 11.5628 620.437 -1.33727e-06 606.174 -1.81521e-06L349.826 -1.04051e-05C335.563 -1.08831e-05 324 11.5628 324 25.8262L324 121.87C324 126.36 320.36 130 315.87 130C312.07 130 308.776 127.368 307.939 123.661L283.523 15.5925C281.463 6.47474 273.362 -2.3504e-05 264.014 -2.302e-05L20 -1.03858e-05C8.95435 -9.81391e-06 -3.91408e-07 8.95431 -8.7423e-07 20L-1.11464e-05 255C-1.16292e-05 266.046 8.95433 275 20 275L264.066 275C273.39 275 281.477 268.557 283.56 259.469L308.143 152.236C308.979 148.587 312.226 146 315.97 146C320.405 146 324 149.595 324 154.03L324 249.174C324 263.437 335.563 275 349.826 275L606.174 275C620.437 275 632 263.437 632 249.174L632 154C632 149.582 635.582 146 640 146C644.418 146 648 149.582 648 154L648 249.174C648 263.437 659.563 275 673.826 275L930.174 275C944.437 275 956 263.437 956 249.174L956 154C956 149.582 959.582 146 964 146C968.418 146 972 149.582 972 154L972 251C972 264.255 982.745 275 996 275L1256 275C1269.25 275 1280 264.255 1280 251L1280 79.007L1280 79L1280 30L1280 24C1280 10.7452 1269.25 -1.34631e-05 1256 -1.34631e-05L1250 -1.34631e-05L1085 -1.34631e-05L1084.99 -1.27731e-05L996 -1.2414e-05Z" fill="#F7F7F7"/>
</svg>
